<svg width="0" height="0" class="hidden">

    <!--    icons    -->

    <symbol viewBox="0 0 16 16" xmlns="http://www.w3.org/2000/svg" id="favorite">
        <g clip-path="url(#clip0)">
            <path d="M15.978 6.134a.446.446 0 0 0-.358-.302l-4.991-.71L8.382.608a.442.442 0 0 0-.795.003L5.372 5.14.38 5.882a.446.446 0 0 0-.358.302.439.439 0 0 0 .115.453l3.623 3.51-.838 4.973c-.03.167.04.335.178.433a.439.439 0 0 0 .466.033l4.456-2.361 4.47 2.335a.446.446 0 0 0 .634-.496l-.864-4.942 3.599-3.53a.434.434 0 0 0 .118-.457zM11.48 9.651a.438.438 0 0 0-.125.394l.752 4.312-3.881-2.026a.45.45 0 0 0-.414 0l-3.87 2.049.726-4.318a.443.443 0 0 0-.128-.391L1.4 6.623l4.332-.643a.44.44 0 0 0 .332-.243l1.924-3.931 1.95 3.92c.067.132.191.22.336.244l4.335.617-3.13 3.064z"/>
        </g>
        <defs>
            <clipPath id="clip0">
                <path d="M0 0h16v16H0V0z" fill="#fff"/>
            </clipPath>
        </defs>
    </symbol>
    <symbol viewBox="0 0 16 16" xmlns="http://www.w3.org/2000/svg" id="favorite-full">
        <g clip-path="url(#clip0)">
            <path d="M15.9859 6.17931C15.9521 6.07563 15.8625 6.00002 15.7545 5.98427L10.5736 5.23134L8.25669 0.536761C8.20858 0.438814 8.10891 0.376953 8.00008 0.376953C7.89125 0.376953 7.7913 0.438814 7.74347 0.536761L5.42625 5.23163L0.245377 5.98456C0.137407 6.00031 0.0480517 6.07563 0.0139707 6.17959C-0.0195374 6.28298 0.00824285 6.39697 0.0864285 6.47286L3.83562 10.1273L2.95037 15.2875C2.93204 15.3949 2.97615 15.5035 3.06407 15.5676C3.15257 15.6323 3.2697 15.6406 3.36565 15.5894L8.00008 13.1533L12.6339 15.5894C12.6758 15.6114 12.7219 15.6223 12.7674 15.6223C12.8267 15.6223 12.8857 15.604 12.9358 15.5676C13.024 15.5035 13.0681 15.3949 13.0495 15.2875L12.1645 10.1275L15.9137 6.47286C15.9916 6.39639 16.0197 6.28269 15.9859 6.17931Z"/>
        </g>
        <defs>
            <clipPath id="clip0">
                <path d="M0 0H16V16H0V0Z" fill="white"/>
            </clipPath>
        </defs>
    </symbol>
    <symbol viewBox="0 0 16 16" xmlns="http://www.w3.org/2000/svg" id="calendar">
        <path d="M8.71875 11.375C8.71875 12.0642 9.2795 12.625 9.96875 12.625H11.4375C12.1267 12.625 12.6875 12.0642 12.6875 11.375V9.90625C12.6875 9.217 12.1267 8.65625 11.4375 8.65625H9.96875C9.2795 8.65625 8.71875 9.217 8.71875 9.90625V11.375ZM9.96875 9.90625H11.4375L11.4383 11.375C11.4383 11.375 11.4381 11.375 11.4375 11.375H9.96875V9.90625Z" fill="#B8BEC2"/>
        <path d="M12.0625 7.1875C12.4077 7.1875 12.6875 6.90768 12.6875 6.5625C12.6875 6.21732 12.4077 5.9375 12.0625 5.9375C11.7173 5.9375 11.4375 6.21732 11.4375 6.5625C11.4375 6.90768 11.7173 7.1875 12.0625 7.1875Z" fill="#B8BEC2"/>
        <path d="M9.34375 7.1875C9.68893 7.1875 9.96875 6.90768 9.96875 6.5625C9.96875 6.21732 9.68893 5.9375 9.34375 5.9375C8.99857 5.9375 8.71875 6.21732 8.71875 6.5625C8.71875 6.90768 8.99857 7.1875 9.34375 7.1875Z" fill="#B8BEC2"/>
        <path d="M15.375 11C15.7202 11 16 10.7202 16 10.375V3.75C16 2.3715 14.8785 1.25 13.5 1.25H12.6875V0.625C12.6875 0.279813 12.4077 0 12.0625 0C11.7173 0 11.4375 0.279813 11.4375 0.625V1.25H8.59375V0.625C8.59375 0.279813 8.31394 0 7.96875 0C7.62356 0 7.34375 0.279813 7.34375 0.625V1.25H4.53125V0.625C4.53125 0.279813 4.25144 0 3.90625 0C3.56106 0 3.28125 0.279813 3.28125 0.625V1.25H2.5C1.1215 1.25 0 2.3715 0 3.75V13.5C0 14.8785 1.1215 16 2.5 16H13.5C14.8785 16 16 14.8785 16 13.5C16 13.1548 15.7202 12.875 15.375 12.875C15.0298 12.875 14.75 13.1548 14.75 13.5C14.75 14.1892 14.1892 14.75 13.5 14.75H2.5C1.81075 14.75 1.25 14.1892 1.25 13.5V3.75C1.25 3.06075 1.81075 2.5 2.5 2.5H3.28125V3.125C3.28125 3.47019 3.56106 3.75 3.90625 3.75C4.25144 3.75 4.53125 3.47019 4.53125 3.125V2.5H7.34375V3.125C7.34375 3.47019 7.62356 3.75 7.96875 3.75C8.31394 3.75 8.59375 3.47019 8.59375 3.125V2.5H11.4375V3.125C11.4375 3.47019 11.7173 3.75 12.0625 3.75C12.4077 3.75 12.6875 3.47019 12.6875 3.125V2.5H13.5C14.1892 2.5 14.75 3.06075 14.75 3.75V10.375C14.75 10.7202 15.0298 11 15.375 11Z" fill="#B8BEC2"/>
        <path d="M3.90625 12.625C4.25143 12.625 4.53125 12.3452 4.53125 12C4.53125 11.6548 4.25143 11.375 3.90625 11.375C3.56107 11.375 3.28125 11.6548 3.28125 12C3.28125 12.3452 3.56107 12.625 3.90625 12.625Z" fill="#B8BEC2"/>
        <path d="M3.90625 7.1875C4.25143 7.1875 4.53125 6.90768 4.53125 6.5625C4.53125 6.21732 4.25143 5.9375 3.90625 5.9375C3.56107 5.9375 3.28125 6.21732 3.28125 6.5625C3.28125 6.90768 3.56107 7.1875 3.90625 7.1875Z" fill="#B8BEC2"/>
        <path d="M3.90625 9.90625C4.25143 9.90625 4.53125 9.62643 4.53125 9.28125C4.53125 8.93607 4.25143 8.65625 3.90625 8.65625C3.56107 8.65625 3.28125 8.93607 3.28125 9.28125C3.28125 9.62643 3.56107 9.90625 3.90625 9.90625Z" fill="#B8BEC2"/>
        <path d="M6.625 9.90625C6.97018 9.90625 7.25 9.62643 7.25 9.28125C7.25 8.93607 6.97018 8.65625 6.625 8.65625C6.27982 8.65625 6 8.93607 6 9.28125C6 9.62643 6.27982 9.90625 6.625 9.90625Z" fill="#B8BEC2"/>
        <path d="M6.625 7.1875C6.97018 7.1875 7.25 6.90768 7.25 6.5625C7.25 6.21732 6.97018 5.9375 6.625 5.9375C6.27982 5.9375 6 6.21732 6 6.5625C6 6.90768 6.27982 7.1875 6.625 7.1875Z" fill="#B8BEC2"/>
        <path d="M6.625 12.625C6.97018 12.625 7.25 12.3452 7.25 12C7.25 11.6548 6.97018 11.375 6.625 11.375C6.27982 11.375 6 11.6548 6 12C6 12.3452 6.27982 12.625 6.625 12.625Z" fill="#B8BEC2"/>
    </symbol>
    <symbol viewBox="0 0 16 16" xmlns="http://www.w3.org/2000/svg" id="heart">
        <path d="M8 14.33a.821.821 0 0 1-.541-.203c-.566-.494-1.111-.96-1.592-1.37l-.003-.001c-1.41-1.202-2.628-2.24-3.475-3.263C1.44 8.35 1 7.266 1 6.083c0-1.15.394-2.212 1.11-2.99a3.765 3.765 0 0 1 2.801-1.218c.808 0 1.548.255 2.2.76A4.5 4.5 0 0 1 8 3.562a4.5 4.5 0 0 1 .89-.929 3.522 3.522 0 0 1 2.2-.759c1.08 0 2.075.433 2.8 1.219.716.777 1.11 1.838 1.11 2.988 0 1.184-.441 2.268-1.388 3.411-.848 1.023-2.066 2.06-3.476 3.263-.482.41-1.028.876-1.595 1.371A.822.822 0 0 1 8 14.33zM4.911 2.696c-.85 0-1.63.34-2.198.955-.576.625-.893 1.489-.893 2.432 0 .996.37 1.887 1.2 2.888.802.968 1.995 1.984 3.376 3.162l.003.002c.483.411 1.03.878 1.6 1.376a185.33 185.33 0 0 1 1.605-1.378c1.381-1.178 2.574-2.194 3.376-3.162.83-1.001 1.2-1.892 1.2-2.888 0-.943-.317-1.807-.893-2.432a2.953 2.953 0 0 0-2.198-.955 2.72 2.72 0 0 0-1.698.588 3.98 3.98 0 0 0-.946 1.095.514.514 0 0 1-.445.253.514.514 0 0 1-.445-.253 3.976 3.976 0 0 0-.946-1.095 2.72 2.72 0 0 0-1.698-.588z"
              fill="#667077"/>
    </symbol>
    <symbol viewBox="0 0 16 16" xmlns="http://www.w3.org/2000/svg" id="view">
        <path d="M15.9 7.862C14.716 4.403 11.544 2.079 8 2.079c-3.544 0-6.716 2.325-7.9 5.784a.406.406 0 0 0 0 .272c1.184 3.463 4.356 5.788 7.9 5.788 3.544 0 6.716-2.325 7.9-5.785a.46.46 0 0 0 0-.275zm-.856.166a7.744 7.744 0 0 1-2.766 3.66A7.3 7.3 0 0 1 8 13.078a7.3 7.3 0 0 1-4.278-1.39 7.795 7.795 0 0 1-2.766-3.66L.947 8l.01-.028a7.744 7.744 0 0 1 2.765-3.66A7.3 7.3 0 0 1 8 2.923a7.3 7.3 0 0 1 4.278 1.39 7.794 7.794 0 0 1 2.766 3.66l.01.028-.01.028z"
              fill="#667077"/>
        <path d="M8 5.078A2.923 2.923 0 0 0 5.078 8 2.923 2.923 0 0 0 8 10.922 2.923 2.923 0 0 0 10.922 8 2.923 2.923 0 0 0 8 5.078zm0 5a2.08 2.08 0 0 1 0-4.156 2.08 2.08 0 0 1 0 4.156z" fill="#667077"/>
    </symbol>
    <symbol viewBox="0 0 14 14" xmlns="http://www.w3.org/2000/svg" id="left-arrow">
        <g clip-path="url(#clip0)">
            <path d="M4.56664 2.22664C4.76402 2.02927 5.07474 2.02927 5.27211 2.22664C5.46282 2.41734 5.46282 2.73474 5.27211 2.925L1.69499 6.50212H13.499C13.7742 6.50212 14 6.72083 14 6.99599C14 7.27116 13.7742 7.49698 13.499 7.49698H1.69499L5.27211 11.0674C5.46282 11.2648 5.46282 11.5826 5.27211 11.7729C5.07474 11.9703 4.76402 11.9703 4.56664 11.7729L0.142692 7.34895C-0.0480114 7.15825 -0.0480114 6.84085 0.142692 6.6506L4.56664 2.22664Z"/>
        </g>
        <defs>
            <clipPath id="clip0">
                <path d="M0 0H14V14H0V0Z" fill="white"/>
            </clipPath>
        </defs>
    </symbol>
    <symbol viewBox="0 0 14 14" xmlns="http://www.w3.org/2000/svg" id="right-arrow">
        <g clip-path="url(#clip0)">
            <path d="M9.43335 11.7734C9.23598 11.9707 8.92526 11.9707 8.72789 11.7734C8.53718 11.5827 8.53718 11.2653 8.72789 11.075L12.305 7.49788L0.500985 7.49788C0.225822 7.49788 1.50151e-06 7.27917 1.47746e-06 7.00401C1.4534e-06 6.72884 0.225822 6.50302 0.500985 6.50302L12.305 6.50302L8.72788 2.93256C8.53718 2.73519 8.53718 2.41736 8.72788 2.2271C8.92526 2.02973 9.23598 2.02973 9.43335 2.2271L13.8573 6.65105C14.048 6.84175 14.048 7.15915 13.8573 7.3494L9.43335 11.7734Z"/>
        </g>
        <defs>
            <clipPath id="clip0">
                <path d="M14 14L0 14L-1.22392e-06 1.22392e-06L14 0L14 14Z" fill="white"/>
            </clipPath>
        </defs>
    </symbol>
    <symbol viewBox="0 0 16 16" xmlns="http://www.w3.org/2000/svg" id="home">
        <path d="M9.85312 15.875H14.4812C14.7188 15.875 14.9125 15.6813 14.9125 15.4438V6.66564C14.9125 6.54377 14.8625 6.42814 14.7719 6.34689L8.10625 0.237516C7.9375 0.0843913 7.67812 0.0875164 7.51562 0.246891L1.21875 6.35627C1.13437 6.43752 1.0875 6.55002 1.0875 6.66564V15.4438C1.0875 15.6813 1.28125 15.875 1.51875 15.875H6.14687C6.38437 15.875 6.57812 15.6813 6.57812 15.4438V11.2469H9.42187V15.4469C9.42187 15.6813 9.61562 15.875 9.85312 15.875ZM6.14687 10.3844C5.90937 10.3844 5.71562 10.5781 5.71562 10.8156V15.0156H1.95V6.85002L7.825 1.15002L14.0531 6.85939V15.0156H10.2812V10.8156C10.2812 10.5781 10.0875 10.3844 9.85 10.3844H6.14687Z"/>
    </symbol>
    <symbol viewBox="0 0 17 16" xmlns="http://www.w3.org/2000/svg" id="search">
        <circle cx="8" cy="8" r="7.5" stroke-linecap="round" stroke-linejoin="round"/>
        <line x1="13.7071" y1="13" x2="16" y2="15.2929" stroke-linecap="round" stroke-linejoin="round"/>
    </symbol>
    <symbol viewBox="0 0 10 11" xmlns="http://www.w3.org/2000/svg" id="dropdown">
        <path d="M7.99963 4.32849L4.99976 7.32836L1.99988 4.32849" stroke-linecap="round" stroke-linejoin="round"/>
    </symbol>
    <symbol viewBox="0 0 20 20"  xmlns="http://www.w3.org/2000/svg" id="notification">
        <path d="M18.2741 16.8692L16.8425 14.4842C16.1825 13.3834 15.8333 12.1234 15.8333 10.8392V8.75001C15.8333 5.53419 13.2158 2.91669 9.99996 2.91669C6.78414 2.91669 4.16664 5.53419 4.16664 8.75001V10.8392C4.16664 12.1234 3.81746 13.3834 3.15746 14.4842L1.72578 16.8692C1.64828 16.9975 1.6466 17.1584 1.71996 17.2884C1.79414 17.4192 1.93328 17.5 2.08328 17.5H17.9166C18.0666 17.5 18.2058 17.4192 18.2799 17.2884C18.3533 17.1583 18.3516 16.9975 18.2741 16.8692ZM2.81914 16.6667L3.87164 14.9125C4.60996 13.6825 4.99996 12.2742 4.99996 10.8392V8.75001C4.99996 5.99251 7.24246 3.75001 9.99996 3.75001C12.7575 3.75001 15 5.99251 15 8.75001V10.8392C15 12.2742 15.39 13.6825 16.1275 14.9125L17.1808 16.6667H2.81914Z"/>
        <path d="M9.99993 0C9.08075 0 8.33325 0.7475 8.33325 1.66668V3.33336C8.33325 3.56332 8.51993 3.75 8.74993 3.75C8.97993 3.75 9.16661 3.56332 9.16661 3.33332V1.66668C9.16661 1.20668 9.53993 0.833359 9.99993 0.833359C10.4599 0.833359 10.8333 1.20668 10.8333 1.66668V3.33336C10.8333 3.56332 11.0199 3.75 11.2499 3.75C11.4799 3.75 11.6666 3.56332 11.6666 3.33332V1.66668C11.6666 0.7475 10.9191 0 9.99993 0Z"/>
        <path d="M11.8034 16.8725C11.6859 16.6742 11.4317 16.6092 11.2326 16.7233C11.0334 16.84 10.9668 17.0958 11.0834 17.2941C11.1917 17.4783 11.2509 17.6991 11.2509 17.9166C11.2509 18.6058 10.6901 19.1666 10.0009 19.1666C9.31175 19.1666 8.75093 18.6058 8.75093 17.9166C8.75093 17.6991 8.81011 17.4783 8.91843 17.2941C9.03425 17.095 8.96761 16.84 8.76925 16.7233C8.56843 16.6091 8.31507 16.6741 8.19843 16.8725C8.01425 17.1875 7.91675 17.5483 7.91675 17.9167C7.91679 19.0658 8.85093 20 10.0001 20C11.1493 20 12.0834 19.0658 12.0851 17.9167C12.0851 17.5483 11.9876 17.1875 11.8034 16.8725Z"/>
    </symbol>
    <symbol viewBox="0 0 16 16" xmlns="http://www.w3.org/2000/svg" id="times">
        <rect x="11.8284" y="5.35095" width="9.40325" height="1.56721" rx="0.783604" transform="rotate(135 11.8284 5.35095)"/>
        <rect x="10.7202" y="12" width="9.40325" height="1.56721" rx="0.783604" transform="rotate(-135 10.7202 12)"/>
    </symbol>
    <symbol viewBox="0 0 16 16" xmlns="http://www.w3.org/2000/svg" id="menu">
        <rect y="1.5" width="16" height="1" rx="0.5"/>
        <rect y="7.5" width="16" height="1" rx="0.5"/>
        <rect y="13.5" width="16" height="1" rx="0.5"/>
    </symbol>
    <symbol viewBox="0 0 14 14" xmlns="http://www.w3.org/2000/svg" id="user">
        <path d="M0.501558 13.0392C0.491261 13.1576 0.532448 13.276 0.612248 13.3636C0.692048 13.4511 0.802738 13.5 0.923725 13.5H0.9263C1.14768 13.5 1.33045 13.3327 1.34847 13.1087C1.46688 11.7058 2.10785 10.4032 3.14783 9.4405C4.19553 8.4726 5.5547 7.93974 6.97823 7.93974C8.40176 7.93974 9.76093 8.4726 10.8086 9.4405C11.8512 10.4032 12.4896 11.7058 12.608 13.1087C12.626 13.3327 12.8088 13.5 13.0302 13.5H13.0327C13.1511 13.5 13.2618 13.4511 13.3442 13.3636C13.424 13.276 13.4652 13.1576 13.4549 13.0392C13.3905 12.2773 13.1975 11.5436 12.8783 10.8563C12.5591 10.1664 12.1189 9.54089 11.5732 8.99516C10.8678 8.28983 10.0364 7.76727 9.10452 7.44549L8.93462 7.38629L9.08135 7.28589C10.1059 6.58057 10.7108 5.41703 10.6954 4.17884C10.6851 3.18778 10.2861 2.26107 9.57045 1.56346C8.85997 0.865853 7.92039 0.487447 6.92932 0.500318C5.94855 0.513189 5.02442 0.907041 4.33196 1.60722C3.6395 2.30998 3.25595 3.23669 3.25595 4.22003C3.25595 5.44277 3.86088 6.58829 4.86997 7.28589L5.01669 7.38629L4.8468 7.44549C3.91494 7.76727 3.08347 8.28983 2.37815 8.99516C1.83242 9.54089 1.3948 10.1664 1.07303 10.8563C0.758977 11.541 0.565912 12.2773 0.501558 13.0392ZM4.108 4.22003C4.108 2.6369 5.3951 1.3498 6.97823 1.3498C8.56136 1.3498 9.84846 2.6369 9.84846 4.22003C9.84846 5.80316 8.56136 7.09026 6.97823 7.09026C5.3951 7.09026 4.108 5.80316 4.108 4.22003Z"/>
    </symbol>
    <symbol viewBox="0 0 14 14" xmlns="http://www.w3.org/2000/svg" id="status">
        <circle cx="7" cy="7" r="7" fill="white"/>
        <circle cx="7" cy="7" r="4" fill="#31B8A0"/>
    </symbol>
    <symbol viewBox="0 0 14 14" xmlns="http://www.w3.org/2000/svg" id="link">
        <g clip-path="url(#clip0)">
            <path d="M13.4082 2.51983L11.618 0.74848C10.8256 -0.0316147 9.53892 -0.0368827 8.74478 0.7397L6.75833 2.67743C5.96287 3.45357 5.95936 4.71788 6.74955 5.49753L7.88479 4.40707C7.76977 4.05982 7.91157 3.66209 8.19253 3.38684L9.45639 2.15458C9.85676 1.76607 10.499 1.76783 10.8941 2.15897L11.9692 3.22134C12.3643 3.61249 12.3625 4.24244 11.9648 4.63183L10.7009 5.86497C10.4336 6.12573 9.9946 6.26885 9.65394 6.1771L8.54197 7.26844C9.33347 8.05029 10.6193 8.0538 11.4152 7.27722L13.3994 5.34125C14.1971 4.56379 14.1997 3.3008 13.4082 2.51983Z"/>
            <path d="M6.13496 9.61135C6.22934 9.95069 6.07833 10.3897 5.80483 10.6566L4.62438 11.8098C4.21962 12.2049 3.56464 12.2027 3.16164 11.8046L2.06503 10.7242C1.66291 10.3265 1.66555 9.67983 2.0703 9.28649L3.25164 8.13325C3.53962 7.85361 3.95315 7.71138 4.31401 7.83079L5.45276 6.70257C4.64676 5.90755 3.33505 5.9036 2.52554 6.69379L0.610202 8.56391C-0.200183 9.35542 -0.204134 10.6421 0.601422 11.4389L2.42501 13.2418C3.23013 14.036 4.54097 14.0399 5.35223 13.2497L7.26757 11.3796C8.07707 10.5872 8.08059 9.30142 7.27635 8.50552L6.13496 9.61135Z"/>
            <path d="M4.88997 9.09685C5.1582 9.36771 5.59719 9.37035 5.87069 9.10037L9.1434 5.84478C9.41601 5.57392 9.41777 5.1358 9.14691 4.86406C8.8778 4.59408 8.43969 4.59232 8.16795 4.86143L4.89436 8.11614C4.62218 8.38612 4.62043 8.82424 4.88997 9.09685Z"/>
        </g>
        <defs>
            <clipPath id="clip0">
                <path d="M0 0H14V14H0V0Z" fill="white"/>
            </clipPath>
        </defs>
    </symbol>
    <symbol viewBox="0 0 14 14" xmlns="http://www.w3.org/2000/svg" id="share-full">
        <path d="M2.74371 4.92462C3.30653 4.92462 3.79899 5.13568 4.15075 5.48744L9.14572 2.60301C9.07537 2.46231 9.07537 2.25126 9.07537 2.11055C9.07537 0.914573 9.98995 0 11.1859 0C12.3819 0 13.2965 0.914573 13.2965 2.11055C13.2965 3.30653 12.3819 4.22111 11.1859 4.22111C10.6231 4.22111 10.1306 4.01005 9.77889 3.65829L4.78392 6.54271C4.85427 6.68342 4.85427 6.89447 4.85427 7.03518C4.85427 7.17588 4.85427 7.38693 4.78392 7.52764L9.77889 10.4824C10.1306 10.1307 10.6231 9.9196 11.1859 9.9196C12.3116 9.9196 13.2261 10.8342 13.2261 11.9598C13.2261 13.0854 12.3116 14 11.1859 14C10.0603 14 9.14572 13.0854 9.14572 11.9598C9.14572 11.8191 9.14572 11.6784 9.21608 11.4673L4.2211 8.51256C3.86934 8.86432 3.37688 9.07538 2.81407 9.07538C1.61809 9.07538 0.703513 8.1608 0.703513 6.96482C0.703513 5.76884 1.54774 4.92462 2.74371 4.92462Z"/>
    </symbol>
    <symbol viewBox="0 0 16 16" xmlns="http://www.w3.org/2000/svg" id="like">
        <path d="M8.69056 0C7.95191 0 8.20031 1.57862 8.20031 1.57862C8.20031 1.57862 6.62169 5.93207 5.11171 7.09233C4.78814 7.43224 4.58551 7.8081 4.45804 8.11533C4.42862 8.1905 4.40248 8.26241 4.3796 8.32777C4.27828 8.53368 4.06257 8.85071 3.60173 9.12852L5.11171 15.6947C5.11171 15.6947 7.44859 15.9986 9.792 15.9496C10.73 16.0248 11.7236 16.0313 12.5145 15.8613C15.2011 15.2894 14.5278 13.4166 14.5278 13.4166C15.9757 12.3282 15.1521 10.9686 15.1521 10.9686C16.4398 9.62531 15.175 8.49773 15.175 8.49773C15.175 8.49773 15.8711 7.41263 14.9723 6.59228C13.8513 5.56601 10.8085 6.2491 10.8085 6.2491C10.596 6.28505 10.3705 6.33081 10.1286 6.38964C10.1286 6.38964 9.07623 6.87989 10.1286 3.68671C11.1843 0.493522 9.42921 0 8.69056 0Z"/>
        <path d="M4.02662 15.2207L2.88269 9.78546C2.81732 9.47496 2.50356 9.22003 2.18653 9.22003H0.00326835L0 15.7829H3.56578C3.88608 15.7862 4.09198 15.5312 4.02662 15.2207Z"/>
    </symbol>
    <symbol viewBox="0 0 16 16" xmlns="http://www.w3.org/2000/svg" id="dislike">
        <g clip-path="url(#clip0)">
            <path d="M7.30944 16C8.04809 16 7.79969 14.4214 7.79969 14.4214C7.79969 14.4214 9.37831 10.0679 10.8883 8.90767C11.2119 8.56776 11.4145 8.19189 11.542 7.88467C11.5714 7.8095 11.5975 7.73759 11.6204 7.67223C11.7217 7.46632 11.9374 7.14929 12.3983 6.87148L10.8883 0.305349C10.8883 0.305349 8.55142 0.00139203 6.208 0.0504174C5.26999 -0.0247542 4.27641 -0.0312908 3.48546 0.138663C0.798874 0.710626 1.47215 2.58339 1.47215 2.58339C0.024273 3.67176 0.847898 5.03139 0.847898 5.03139C-0.439834 6.37469 0.82502 7.50227 0.82502 7.50227C0.82502 7.50227 0.12886 8.58737 1.02766 9.40772C2.1487 10.434 5.19154 9.7509 5.19154 9.7509C5.40399 9.71495 5.6295 9.66919 5.87136 9.61036C5.87136 9.61036 6.92377 9.12011 5.87136 12.3133C4.81568 15.5065 6.57079 16 7.30944 16Z"/>
            <path d="M11.9734 0.779264L13.1173 6.21454C13.1827 6.52504 13.4964 6.77997 13.8135 6.77997L15.9967 6.77997L16 0.217108L12.4342 0.217107C12.1139 0.213839 11.908 0.46877 11.9734 0.779264Z"/>
        </g>
        <defs>
            <clipPath id="clip0">
                <path d="M16 16L0 16L1.39876e-06 -1.39876e-06L16 0L16 16Z" fill="white"/>
            </clipPath>
        </defs>
    </symbol>
    <symbol viewBox="0 0 14 14" xmlns="http://www.w3.org/2000/svg" id="reply">
        <path d="M9.91667 4.375V2.625L14 6.70833L9.91667 10.7917V9.04167L12.25 6.70833L9.91667 4.375ZM6.41667 4.95833V2.625L10.5 6.70833L6.41667 10.7917V8.4C3.5 8.4 1.45833 9.33333 0 11.375C0.583333 8.45833 2.33333 5.54167 6.41667 4.95833Z"/>
    </symbol>
    <symbol viewBox="0 0 16 16" xmlns="http://www.w3.org/2000/svg" id="create">
        <g clip-path="url(#clip0)">
            <path d="M14.7674 10.0511C14.5473 10.0511 14.3689 10.2295 14.3689 10.4496V13.9877C14.3681 14.6477 13.8334 15.1825 13.1734 15.1831H1.99241C1.33242 15.1825 0.797739 14.6477 0.796961 13.9877V3.60361C0.797739 2.94377 1.33242 2.40893 1.99241 2.40816H5.5305C5.7506 2.40816 5.92899 2.22977 5.92899 2.00967C5.92899 1.78973 5.7506 1.61119 5.5305 1.61119H1.99241C0.892535 1.61244 0.00124049 2.50373 -4.76837e-06 3.60361V13.9878C0.00124049 15.0877 0.892535 15.979 1.99241 15.9802H13.1734C14.2733 15.979 15.1646 15.0877 15.1658 13.9878V10.4496C15.1658 10.2295 14.9875 10.0511 14.7674 10.0511Z"/>
            <path d="M15.008 0.585881C14.3077 -0.114422 13.1724 -0.114422 12.4721 0.585881L5.36287 7.69506C5.31415 7.74379 5.27897 7.80418 5.2606 7.87049L4.32572 11.2456C4.28727 11.384 4.32634 11.5322 4.42783 11.6338C4.52948 11.7353 4.67766 11.7744 4.81604 11.7361L8.19117 10.8011C8.25748 10.7827 8.31787 10.7475 8.36659 10.6988L15.4756 3.58945C16.1749 2.88868 16.1749 1.75424 15.4756 1.05348L15.008 0.585881ZM6.23113 7.95408L12.0495 2.13561L13.9259 4.01206L8.10742 9.83053L6.23113 7.95408ZM5.8563 8.70621L7.35544 10.2055L5.28177 10.78L5.8563 8.70621ZM14.9122 3.02597L14.4895 3.44858L12.6129 1.57197L13.0357 1.14936C13.4247 0.760373 14.0554 0.760373 14.4444 1.14936L14.9122 1.61696C15.3005 2.00641 15.3005 2.63667 14.9122 3.02597Z"/>
        </g>
        <defs>
            <clipPath id="clip0">
                <path d="M0 0H16V16H0V0Z" fill="white"/>
            </clipPath>
        </defs>
    </symbol>
    <symbol viewBox="0 0 17 16" xmlns="http://www.w3.org/2000/svg" id="filter">
        <path d="M15.4595 2.24513C15.3895 2.09546 15.2399 2 15.0757 2H1.92433C1.7601 2 1.61063 2.09546 1.54053 2.24513C1.47049 2.3948 1.49244 2.5717 1.59694 2.69937L6.65251 8.87659V14.5725C6.65251 14.7204 6.72837 14.8578 6.85307 14.9358C6.92141 14.9785 6.99897 15 7.07682 15C7.14114 15 7.2057 14.9852 7.26521 14.9555L10.1057 13.5373C10.25 13.4652 10.3413 13.3171 10.3416 13.1548L10.3471 8.87676L15.403 2.69931C15.5075 2.5717 15.5295 2.39474 15.4595 2.24513ZM9.59569 8.45113C9.53318 8.5275 9.49889 8.62342 9.49878 8.72248L9.49335 12.8889L7.50118 13.8836V8.72305C7.50118 8.62382 7.46696 8.52767 7.40427 8.45113L2.8241 2.85485H14.1759L9.59569 8.45113Z"/>
    </symbol>
    <symbol viewBox="0 0 16 16" xmlns="http://www.w3.org/2000/svg" id="sort">
        <path d="M6.85344 3.89644L5.10344 2.14644C4.90844 1.95119 4.59144 1.95119 4.39644 2.14644L2.64644 3.89644C2.45119 4.09169 2.45119 4.40819 2.64644 4.60344C2.84144 4.79869 3.15844 4.79869 3.35344 4.60344L4.24994 3.70694V13.4999C4.24994 13.7759 4.47394 13.9999 4.74994 13.9999C5.02594 13.9999 5.24994 13.7759 5.24994 13.4999V3.70694L6.14644 4.60344C6.24394 4.70119 6.37194 4.74994 6.49994 4.74994C6.62794 4.74994 6.75594 4.70119 6.85344 4.60344C7.04869 4.40819 7.04869 4.09169 6.85344 3.89644Z"/>
        <path d="M13.3535 11.3965C13.1582 11.2013 12.8417 11.2013 12.6464 11.3965L11.7499 12.293V2.5C11.7499 2.224 11.5259 2 11.2499 2C10.9739 2 10.7499 2.224 10.7499 2.5V12.293L9.85344 11.3965C9.65819 11.2013 9.34144 11.2013 9.14644 11.3965C8.95119 11.5917 8.95119 11.9083 9.14644 12.1035L10.8964 13.8535C10.9942 13.9513 11.1219 14 11.2499 14C11.3779 14 11.5057 13.9513 11.6034 13.8535L13.3535 12.1035C13.5487 11.9083 13.5487 11.5917 13.3535 11.3965Z"/>
    </symbol>

    <!--    social    -->

    <symbol viewBox="0 0 14 14" xmlns="http://www.w3.org/2000/svg" id="facebook">
        <path d="M3.68982 7.4564H5.22444V13.7742C5.22444 13.8989 5.32552 14 5.45025 14H8.05226C8.177 14 8.27807 13.8989 8.27807 13.7742V7.48616H10.0423C10.157 7.48616 10.2535 7.40008 10.2666 7.28614L10.5345 4.96025C10.5419 4.89625 10.5216 4.83217 10.4788 4.78416C10.4359 4.73611 10.3746 4.70861 10.3102 4.70861H8.27816V3.25062C8.27816 2.81111 8.51481 2.58824 8.98159 2.58824C9.04812 2.58824 10.3102 2.58824 10.3102 2.58824C10.435 2.58824 10.536 2.48712 10.536 2.36243V0.227477C10.536 0.102742 10.435 0.00167097 10.3102 0.00167097H8.47917C8.46626 0.00103871 8.43758 0 8.39531 0C8.0776 0 6.97327 0.0623677 6.10093 0.864884C5.13439 1.7542 5.26875 2.81901 5.30086 3.00363V4.70856H3.68982C3.56508 4.70856 3.46401 4.80963 3.46401 4.93437V7.23055C3.46401 7.35528 3.56508 7.4564 3.68982 7.4564Z"/>
    </symbol>
    <symbol viewBox="0 0 14 14" xmlns="http://www.w3.org/2000/svg" id="twitter">
        <g clip-path="url(#clip0)">
            <path d="M13.6832 2.59153C13.4633 2.68907 13.2371 2.7714 13.0061 2.83824C13.2796 2.52889 13.4882 2.16489 13.6155 1.76657C13.6441 1.67728 13.6145 1.57955 13.5411 1.52116C13.4678 1.46272 13.366 1.45572 13.2852 1.50355C12.7945 1.79457 12.2651 2.00371 11.71 2.126C11.1509 1.57964 10.3914 1.26871 9.6063 1.26871C7.94903 1.26871 6.60073 2.61691 6.60073 4.27406C6.60073 4.40457 6.60899 4.53436 6.62534 4.66235C4.56884 4.4818 2.65694 3.47104 1.34405 1.86064C1.29726 1.80324 1.22518 1.7723 1.15138 1.77822C1.07754 1.784 1.01119 1.82564 0.973889 1.88963C0.707607 2.34653 0.566833 2.86909 0.566833 3.40077C0.566833 4.12493 0.825392 4.81202 1.28213 5.34889C1.14325 5.3008 1.00848 5.24069 0.879859 5.16929C0.810805 5.13086 0.72653 5.13144 0.657927 5.17078C0.589279 5.21011 0.546238 5.28246 0.544432 5.36154C0.544116 5.37486 0.544116 5.38818 0.544116 5.40169C0.544116 6.48262 1.12591 7.4558 2.0154 7.98622C1.93898 7.97859 1.86261 7.96753 1.78674 7.95303C1.70851 7.93808 1.62808 7.96549 1.57533 8.02515C1.52249 8.08476 1.50501 8.16786 1.52935 8.24373C1.85859 9.2716 2.70626 10.0276 3.73101 10.2582C2.88109 10.7905 1.90913 11.0693 0.888802 11.0693C0.675902 11.0693 0.461783 11.0568 0.252226 11.032C0.148125 11.0196 0.0485849 11.0811 0.0131318 11.1801C-0.0223214 11.2791 0.0152544 11.3895 0.10382 11.4463C1.41459 12.2867 2.93022 12.7309 4.48677 12.7309C7.54676 12.7309 9.46101 11.288 10.528 10.0776C11.8585 8.56822 12.6216 6.57042 12.6216 4.59646C12.6216 4.514 12.6203 4.43072 12.6178 4.34771C13.1427 3.95224 13.5947 3.47362 13.9624 2.92351C14.0183 2.83996 14.0122 2.72954 13.9475 2.65263C13.8829 2.57568 13.7752 2.55079 13.6832 2.59153Z"/>
        </g>
        <defs>
            <clipPath id="clip0">
                <path d="M0 0H14V14H0V0Z" fill="white"/>
            </clipPath>
        </defs>
    </symbol>
    <symbol viewBox="0 0 14 14" xmlns="http://www.w3.org/2000/svg" id="telegram">
        <path d="M0.247282 6.75011L3.47316 7.95411L4.72178 11.9696C4.80167 12.2268 5.11616 12.3219 5.3249 12.1512L7.12305 10.6853C7.31154 10.5317 7.58002 10.5241 7.777 10.6671L11.0202 13.0217C11.2435 13.184 11.5599 13.0617 11.6159 12.7919L13.9917 1.36361C14.0529 1.06886 13.7633 0.822973 13.4826 0.93152L0.243502 6.03877C-0.0832111 6.16477 -0.0803644 6.62733 0.247282 6.75011ZM4.52055 7.31319L10.8251 3.43019C10.9384 3.36061 11.055 3.51382 10.9577 3.60407L5.7546 8.44061C5.57172 8.61085 5.45374 8.83867 5.42033 9.08596L5.24309 10.3994C5.21962 10.5748 4.97326 10.5922 4.92487 10.4225L4.24321 8.02733C4.16514 7.75414 4.27891 7.46233 4.52055 7.31319Z"/>
    </symbol>
    <symbol viewBox="0 0 17 18" xmlns="http://www.w3.org/2000/svg" id="vk">
        <g clip-path="url(#clip0)">
            <path fill-rule="evenodd" clip-rule="evenodd" d="M14.3193 10.3837C14.8712 10.9667 15.4538 11.5151 15.9487 12.1569C16.1674 12.442 16.3744 12.7363 16.5328 13.0673C16.7572 13.5377 16.554 14.0555 16.164 14.0835L13.7401 14.0824C13.115 14.1385 12.6163 13.8662 12.1969 13.4038C11.8613 13.034 11.5506 12.6404 11.2279 12.2581C11.0956 12.1019 10.9571 11.9548 10.7917 11.8386C10.4608 11.6063 10.1736 11.6774 9.98451 12.0508C9.79192 12.4305 9.74824 12.851 9.72933 13.2742C9.70336 13.8917 9.53084 14.054 8.9575 14.0823C7.73223 14.1448 6.56938 13.9443 5.48913 13.2756C4.53675 12.6861 3.79821 11.8538 3.1554 10.9117C1.90383 9.07707 0.945377 7.06115 0.0839552 4.98874C-0.109944 4.52183 0.0318589 4.27119 0.508051 4.26232C1.29879 4.2457 2.08942 4.24689 2.88109 4.26114C3.20247 4.26622 3.41523 4.46565 3.53932 4.79411C3.96713 5.93215 4.49061 7.0149 5.14769 8.01851C5.32267 8.28571 5.5011 8.55291 5.75519 8.74097C6.03628 8.94921 6.2503 8.88019 6.38253 8.54143C6.46644 8.32663 6.50318 8.09528 6.52209 7.86522C6.58474 7.07374 6.59299 6.28363 6.48312 5.49493C6.41566 5.0027 6.15939 4.68405 5.70539 4.59091C5.47372 4.54342 5.50821 4.45015 5.62038 4.30709C5.81521 4.06036 5.99845 3.90677 6.36373 3.90677H9.10308C9.53434 3.99885 9.63011 4.20844 9.68915 4.6779L9.6915 7.96984C9.6868 8.15158 9.77541 8.69088 10.078 8.81117C10.3202 8.89681 10.4798 8.68721 10.6251 8.52109C11.281 7.76799 11.7491 6.87799 12.1673 5.9564C12.3528 5.55117 12.5124 5.13033 12.6671 4.70984C12.7816 4.39781 12.9614 4.24428 13.2863 4.25108L15.9228 4.25363C16.001 4.25363 16.0801 4.25487 16.1558 4.26889C16.6 4.3508 16.7218 4.55755 16.5846 5.02689C16.3684 5.76325 15.9477 6.37689 15.5364 6.99337C15.0967 7.65155 14.6265 8.28719 14.1905 8.94927C13.7899 9.55386 13.8217 9.85861 14.3193 10.3837Z"/>
        </g>
        <defs>
            <clipPath id="clip0">
                <path d="M0 0H16.638V18H0V0Z" fill="white"/>
            </clipPath>
        </defs>
    </symbol>
    <symbol viewBox="0 0 14 14" xmlns="http://www.w3.org/2000/svg" id="linkedin">
        <g clip-path="url(#clip0)">
            <path d="M3.25899 4.504H0.44847C0.323735 4.504 0.222664 4.60511 0.222664 4.7298V13.7588C0.222664 13.8835 0.323735 13.9846 0.44847 13.9846H3.25899C3.38373 13.9846 3.4848 13.8835 3.4848 13.7588V4.7298C3.4848 4.60511 3.38373 4.504 3.25899 4.504Z"/>
            <path d="M1.85459 0.0144653C0.831961 0.0144653 0 0.845523 0 1.86703C0 2.88898 0.831961 3.72036 1.85459 3.72036C2.87641 3.72036 3.7077 2.88894 3.7077 1.86703C3.70774 0.845523 2.87641 0.0144653 1.85459 0.0144653Z"/>
            <path d="M10.4077 4.27948C9.27893 4.27948 8.44449 4.76474 7.93836 5.31611V4.72969C7.93836 4.605 7.83729 4.50389 7.71256 4.50389H5.02099C4.89625 4.50389 4.79518 4.605 4.79518 4.72969V13.7587C4.79518 13.8834 4.89625 13.9845 5.02099 13.9845H7.82537C7.9501 13.9845 8.05118 13.8834 8.05118 13.7587V9.29144C8.05118 7.78608 8.46007 7.19961 9.50943 7.19961C10.6523 7.19961 10.7431 8.13978 10.7431 9.36889V13.7588C10.7431 13.8835 10.8442 13.9846 10.9689 13.9846H13.7743C13.8991 13.9846 14.0001 13.8835 14.0001 13.7588V8.80618C14.0001 6.56776 13.5733 4.27948 10.4077 4.27948Z"/>
        </g>
        <defs>
            <clipPath id="clip0">
                <path d="M0 0H14V14H0V0Z" fill="white"/>
            </clipPath>
        </defs>
    </symbol>

    <symbol viewBox="0 0 21 20" fill="none" xmlns="http://www.w3.org/2000/svg" id="liking">
        <line x1="17.5" y1="2.29289" x2="18.9142" y2="0.87868" stroke="#2BAC95" stroke-linecap="round" stroke-linejoin="round"/>
        <line x1="16.017" y1="1.36698" x2="16.517" y2="0.50095" stroke="#2BAC95" stroke-linecap="round" stroke-linejoin="round"/>
        <line x1="18.633" y1="3.73117" x2="19.4991" y2="3.23117" stroke="#2BAC95" stroke-linecap="round" stroke-linejoin="round"/>
        <line x1="3.68201" y1="16.1213" x2="2.26779" y2="17.5355" stroke="#2BAC95" stroke-linecap="round" stroke-linejoin="round"/>
        <line x1="5.16507" y1="17.0472" x2="4.66507" y2="17.9132" stroke="#2BAC95" stroke-linecap="round" stroke-linejoin="round"/>
        <line x1="2.54904" y1="14.683" x2="1.68302" y2="15.183" stroke="#2BAC95" stroke-linecap="round" stroke-linejoin="round"/>
        <path d="M10 16.3305C9.80069 16.3305 9.60854 16.2583 9.45879 16.1272C8.89322 15.6326 8.34795 15.1679 7.86687 14.7579L7.86441 14.7558C6.45396 13.5539 5.23599 12.5159 4.38855 11.4933C3.44124 10.3502 3 9.26643 3 8.08242C3 6.93206 3.39445 5.87078 4.11063 5.09394C4.83534 4.30791 5.82976 3.875 6.91101 3.875C7.71915 3.875 8.45924 4.13049 9.11069 4.63432C9.43945 4.88864 9.73746 5.19989 10 5.56295C10.2626 5.19989 10.5605 4.88864 10.8894 4.63432C11.5409 4.13049 12.281 3.875 13.0891 3.875C14.1702 3.875 15.1648 4.30791 15.8895 5.09394C16.6057 5.87078 17 6.93206 17 8.08242C17 9.26643 16.5589 10.3502 15.6116 11.4932C14.7641 12.5159 13.5462 13.5537 12.136 14.7556C11.6541 15.1662 11.108 15.6317 10.5411 16.1274C10.3915 16.2583 10.1992 16.3305 10 16.3305ZM6.91101 4.6951C6.06154 4.6951 5.28117 5.03412 4.71347 5.64978C4.13733 6.27474 3.81999 7.13863 3.81999 8.08242C3.81999 9.07823 4.19009 9.96882 5.01991 10.9701C5.82196 11.9379 7.01494 12.9545 8.39622 14.1317L8.39879 14.1338C8.88168 14.5454 9.42909 15.0119 9.99883 15.5101C10.572 15.011 11.1202 14.5437 11.6041 14.1315C12.9853 12.9543 14.1781 11.9379 14.9802 10.9701C15.8099 9.96882 16.18 9.07823 16.18 8.08242C16.18 7.13863 15.8627 6.27474 15.2865 5.64978C14.7189 5.03412 13.9385 4.6951 13.0891 4.6951C12.4668 4.6951 11.8955 4.89292 11.391 5.28299C10.9414 5.63077 10.6283 6.07041 10.4447 6.37803C10.3502 6.53621 10.184 6.63064 10 6.63064C9.81596 6.63064 9.64977 6.53621 9.55534 6.37803C9.37184 6.07041 9.05867 5.63077 8.60899 5.28299C8.10452 4.89292 7.53319 4.6951 6.91101 4.6951Z" fill="#2BAC95"/>
    </symbol>

    <symbol viewBox="0 0 21 20" fill="none" xmlns="http://www.w3.org/2000/svg" id="liking-black">
        <line x1="17.5" y1="2.29289" x2="18.9142" y2="0.87868" stroke="#2F4858" stroke-linecap="round" stroke-linejoin="round"/>
        <line x1="16.017" y1="1.36698" x2="16.517" y2="0.50095" stroke="#2F4858" stroke-linecap="round" stroke-linejoin="round"/>
        <line x1="18.633" y1="3.73117" x2="19.4991" y2="3.23117" stroke="#2F4858" stroke-linecap="round" stroke-linejoin="round"/>
        <line x1="3.68201" y1="16.1213" x2="2.26779" y2="17.5355" stroke="#2F4858" stroke-linecap="round" stroke-linejoin="round"/>
        <line x1="5.16507" y1="17.0472" x2="4.66507" y2="17.9132" stroke="#2F4858" stroke-linecap="round" stroke-linejoin="round"/>
        <line x1="2.54904" y1="14.683" x2="1.68302" y2="15.183" stroke="#2F4858" stroke-linecap="round" stroke-linejoin="round"/>
        <path d="M10 16.3305C9.80069 16.3305 9.60854 16.2583 9.45879 16.1272C8.89322 15.6326 8.34795 15.1679 7.86687 14.7579L7.86441 14.7558C6.45396 13.5539 5.23599 12.5159 4.38855 11.4933C3.44124 10.3502 3 9.26643 3 8.08242C3 6.93206 3.39445 5.87078 4.11063 5.09394C4.83534 4.30791 5.82976 3.875 6.91101 3.875C7.71915 3.875 8.45924 4.13049 9.11069 4.63432C9.43945 4.88864 9.73746 5.19989 10 5.56295C10.2626 5.19989 10.5605 4.88864 10.8894 4.63432C11.5409 4.13049 12.281 3.875 13.0891 3.875C14.1702 3.875 15.1648 4.30791 15.8895 5.09394C16.6057 5.87078 17 6.93206 17 8.08242C17 9.26643 16.5589 10.3502 15.6116 11.4932C14.7641 12.5159 13.5462 13.5537 12.136 14.7556C11.6541 15.1662 11.108 15.6317 10.5411 16.1274C10.3915 16.2583 10.1992 16.3305 10 16.3305ZM6.91101 4.6951C6.06154 4.6951 5.28117 5.03412 4.71347 5.64978C4.13733 6.27474 3.81999 7.13863 3.81999 8.08242C3.81999 9.07823 4.19009 9.96882 5.01991 10.9701C5.82196 11.9379 7.01494 12.9545 8.39622 14.1317L8.39879 14.1338C8.88168 14.5454 9.42909 15.0119 9.99883 15.5101C10.572 15.011 11.1202 14.5437 11.6041 14.1315C12.9853 12.9543 14.1781 11.9379 14.9802 10.9701C15.8099 9.96882 16.18 9.07823 16.18 8.08242C16.18 7.13863 15.8627 6.27474 15.2865 5.64978C14.7189 5.03412 13.9385 4.6951 13.0891 4.6951C12.4668 4.6951 11.8955 4.89292 11.391 5.28299C10.9414 5.63077 10.6283 6.07041 10.4447 6.37803C10.3502 6.53621 10.184 6.63064 10 6.63064C9.81596 6.63064 9.64977 6.53621 9.55534 6.37803C9.37184 6.07041 9.05867 5.63077 8.60899 5.28299C8.10452 4.89292 7.53319 4.6951 6.91101 4.6951Z" fill="#2F4858"/>
    </symbol>

    <symbol viewBox="0 0 14 14" xmlns="http://www.w3.org/2000/svg" id="duration">
        <g clip-path="url(#clip0)">
            <path d="M8.22263 12.7514C8.10981 12.7802 7.99479 12.8058 7.88061 12.8273C7.58215 12.8841 7.38484 13.1778 7.44004 13.4835C7.46731 13.6338 7.55077 13.7591 7.66409 13.8409C7.78088 13.925 7.92952 13.963 8.08099 13.9341C8.21695 13.9083 8.35398 13.8779 8.48845 13.8436C8.78317 13.7686 8.96272 13.463 8.8892 13.1616C8.81585 12.8599 8.51753 12.6763 8.22263 12.7514Z" />
            <path d="M12.2902 5.20772C12.3288 5.32653 12.4023 5.42353 12.4952 5.49055C12.633 5.58983 12.8133 5.62324 12.9853 5.56503C13.2737 5.46704 13.4299 5.14882 13.3345 4.85386C13.2911 4.7194 13.2428 4.58452 13.1915 4.45318C13.0786 4.16458 12.7587 4.02406 12.4765 4.13951C12.1946 4.25489 12.0572 4.58235 12.1701 4.87105C12.2133 4.98144 12.2537 5.09474 12.2902 5.20772Z" />
            <path d="M10.0102 11.9478C9.91317 12.0134 9.81303 12.0768 9.71215 12.1363C9.44895 12.2916 9.35881 12.6359 9.51057 12.9051C9.55177 12.9783 9.60665 13.0381 9.66986 13.0839C9.83953 13.206 10.07 13.2243 10.2618 13.1112C10.3817 13.0405 10.501 12.9652 10.6166 12.887C10.8699 12.7157 10.9396 12.3665 10.7722 12.1072C10.6047 11.8477 10.2636 11.7764 10.0102 11.9478Z" />
            <path d="M13.6769 6.77974C13.6649 6.4691 13.4092 6.22732 13.1055 6.23945C12.8022 6.2517 12.5658 6.51343 12.5777 6.82395C12.5823 6.94267 12.5834 7.06317 12.5808 7.18177C12.5765 7.37657 12.6696 7.55022 12.8143 7.65459C12.9005 7.7167 13.0051 7.75429 13.1186 7.75694C13.4221 7.76383 13.6737 7.51745 13.6804 7.20666C13.6835 7.06494 13.6823 6.92136 13.6769 6.77974Z" />
            <path d="M12.2002 10.4673C11.9568 10.2804 11.6124 10.3311 11.4301 10.5798C11.3603 10.675 11.2868 10.769 11.2115 10.8596C11.0147 11.0961 11.0425 11.4514 11.2737 11.6529C11.2868 11.6643 11.3002 11.6748 11.314 11.6847C11.5438 11.8505 11.8632 11.8124 12.049 11.5893C12.1389 11.4813 12.2266 11.3689 12.31 11.2552C12.4924 11.0065 12.443 10.6539 12.2002 10.4673Z" />
            <path d="M13.0092 8.43291C12.7193 8.33991 12.4106 8.50501 12.3198 8.8016C12.2851 8.9149 12.2465 9.02875 12.2049 9.14026C12.1136 9.38571 12.2011 9.65578 12.4017 9.80051C12.4385 9.82696 12.479 9.84938 12.5231 9.86641C12.8068 9.97722 13.1246 9.83153 13.2328 9.54103C13.2822 9.40846 13.328 9.273 13.3694 9.1383C13.4602 8.84165 13.2989 8.5259 13.0092 8.43291Z" />
            <path d="M5.82332 12.8326C5.33157 12.7423 4.85985 12.5884 4.41254 12.3739C4.40724 12.371 4.40251 12.3678 4.39695 12.3652C4.29154 12.3145 4.18631 12.2601 4.08431 12.2033C4.08396 12.2028 4.08331 12.2026 4.08275 12.2023C3.89561 12.0969 3.71297 11.9802 3.53553 11.8524C0.948196 9.98742 0.326097 6.31625 2.14881 3.6688C2.54515 3.09333 3.02478 2.61323 3.5595 2.23271C3.56609 2.22802 3.57268 2.22335 3.57921 2.21863C5.46348 0.890133 8.02202 0.800601 10.0228 2.16575L9.59309 2.80108C9.47362 2.97791 9.54712 3.10678 9.75626 3.08752L11.6229 2.91652C11.8323 2.89726 11.9575 2.71191 11.9012 2.50498L11.4 0.65699C11.3438 0.449819 11.2002 0.425021 11.0806 0.601827L10.6499 1.23866C9.18154 0.230098 7.42045 -0.15448 5.67247 0.155674C5.49642 0.186852 5.32283 0.225012 5.15163 0.269432C5.15031 0.269673 5.14925 0.269823 5.14819 0.270064C5.14157 0.271719 5.13487 0.273916 5.12843 0.275752C3.62112 0.671827 2.30601 1.57138 1.3676 2.85486C1.35968 2.86446 1.35154 2.87385 1.34407 2.88429C1.31286 2.92729 1.28189 2.97129 1.25157 3.01529C1.20198 3.0874 1.1531 3.16131 1.10634 3.23522C1.10049 3.24413 1.09602 3.25319 1.0909 3.26219C0.316509 4.49008 -0.0570095 5.90964 0.00704746 7.35484C0.00719452 7.35959 0.00692982 7.36438 0.00704746 7.36926C0.0132532 7.51043 0.024194 7.65356 0.0390465 7.79446C0.0398406 7.80355 0.0418112 7.81216 0.0433111 7.82125C0.0586636 7.96293 0.0779278 8.10495 0.102074 8.24693C0.347479 9.69563 1.01534 10.9992 2.01611 12.0136C2.01843 12.0159 2.02084 12.0185 2.02319 12.021C2.02402 12.0219 2.02493 12.0224 2.02572 12.0233C2.2946 12.2947 2.58706 12.5456 2.90196 12.7726C3.72606 13.3668 4.64371 13.7595 5.62921 13.9405C5.92823 13.9955 6.21387 13.7918 6.26751 13.486C6.32113 13.1799 6.12225 12.8874 5.82332 12.8326Z" />
            <path d="M6.5031 2.50391C6.25714 2.50391 6.05791 2.70795 6.05791 2.95927V7.49593L10.1128 9.64081C10.1781 9.67538 10.2479 9.69167 10.3167 9.69167C10.4778 9.69167 10.6333 9.60192 10.7124 9.44534C10.8252 9.22186 10.7398 8.94731 10.5214 8.83189L6.9478 6.94141V2.95927C6.94777 2.70795 6.74877 2.50391 6.5031 2.50391Z" />
        </g>
        <defs>
            <clipPath id="clip0">
                <path d="M0 0H13.682V14H0V0Z" fill="white"/>
            </clipPath>
        </defs>
    </symbol>
</svg>
