<svg width="16" height="16" viewBox="0 0 16 16" fill="none" xmlns="http://www.w3.org/2000/svg">
<path d="M15.9 7.8625C14.7157 4.40313 11.5438 2.07812 8.00005 2.07812C4.4563 2.07812 1.28442 4.40313 0.100048 7.8625C0.0687981 7.95312 0.0687981 8.04687 0.100048 8.13437C1.28442 11.5969 4.4563 13.9219 8.00005 13.9219C11.5438 13.9219 14.7157 11.5969 15.9 8.1375C15.9282 8.04688 15.9282 7.95312 15.9 7.8625ZM15.0438 8.02812C14.5 9.51562 13.5438 10.7812 12.2782 11.6875C11.0125 12.5969 9.5313 13.0781 8.00005 13.0781C6.4688 13.0781 4.98755 12.5969 3.72192 11.6875C2.4563 10.7781 1.50317 9.5125 0.956298 8.02812L0.946923 8L0.956298 7.97188C1.50005 6.48438 2.4563 5.21875 3.72192 4.3125C4.98755 3.40313 6.4688 2.92188 8.00005 2.92188C9.5313 2.92188 11.0125 3.40313 12.2782 4.3125C13.5438 5.22187 14.4969 6.4875 15.0438 7.97188L15.0532 8L15.0438 8.02812Z" fill="#2F4858"/>
<path d="M8 5.07812C6.3875 5.07812 5.07812 6.3875 5.07812 8C5.07812 9.6125 6.3875 10.9219 8 10.9219C9.6125 10.9219 10.9219 9.6125 10.9219 8C10.9219 6.3875 9.6125 5.07812 8 5.07812ZM8 10.0781C6.85312 10.0781 5.92188 9.14687 5.92188 8C5.92188 6.85312 6.85312 5.92188 8 5.92188C9.14687 5.92188 10.0781 6.85312 10.0781 8C10.0781 9.14687 9.14687 10.0781 8 10.0781Z" fill="#2F4858"/>
</svg>
