<svg width="16" height="16" viewBox="0 0 16 16" fill="none" xmlns="http://www.w3.org/2000/svg">
<path d="M15.9 7.8625C15.375 6.33438 14.4656 5.025 13.3031 4.04375L12.7031 4.64375C13.7562 5.51875 14.5593 6.65938 15.0437 7.97188L15.0531 8L15.0437 8.02812C14.5 9.51562 13.5437 10.7812 12.2781 11.6875C11.0125 12.5969 9.53122 13.0781 7.99997 13.0781C6.93747 13.0781 5.9031 12.8469 4.94372 12.4031L4.31247 13.0344C5.43747 13.6062 6.69372 13.9219 7.99997 13.9219C11.5437 13.9219 14.7156 11.5969 15.9 8.1375C15.9281 8.04688 15.9281 7.95312 15.9 7.8625ZM0.956225 8.02812L0.94685 8L0.956225 7.97188C1.49997 6.48438 2.45622 5.21875 3.72185 4.3125C4.98747 3.40313 6.46872 2.92188 7.99997 2.92188C9.39684 2.92188 10.75 3.32188 11.9375 4.08125L12.5468 3.47187C11.2218 2.58125 9.64997 2.07812 7.99997 2.07812C4.45622 2.07812 1.28435 4.40313 0.0999756 7.8625C0.0687256 7.95312 0.0687256 8.04687 0.0999756 8.13437C0.73435 9.99375 1.94372 11.525 3.47497 12.5437L4.08435 11.9344C3.95935 11.8562 3.8406 11.775 3.71872 11.6875C2.45622 10.7781 1.5031 9.5125 0.956225 8.02812Z" fill="#2F4858"/>
<path d="M8 5.07812C6.3875 5.07812 5.07812 6.3875 5.07812 8C5.07812 8.8125 5.40937 9.54688 5.94375 10.075L6.54063 9.47812C6.15938 9.1 5.92188 8.57812 5.92188 8C5.92188 6.85312 6.85312 5.92188 8 5.92188C8.57812 5.92188 9.10312 6.15938 9.47812 6.54063L10.075 5.94375C9.54688 5.40937 8.8125 5.07812 8 5.07812ZM10.625 6.71875L9.97812 7.36562C10.0437 7.56562 10.0781 7.77813 10.0781 8C10.0781 9.14687 9.14687 10.0781 8 10.0781C7.77813 10.0781 7.56562 10.0437 7.36562 9.98125L6.71875 10.625C7.10625 10.8125 7.54063 10.9187 8 10.9187C9.6125 10.9187 10.9219 9.60938 10.9219 7.99687C10.9219 7.54062 10.8156 7.10625 10.625 6.71875Z" fill="#2F4858"/>
<path d="M1.45 14.3905C1.33125 14.3905 1.20938 14.3437 1.11875 14.253C0.934375 14.0687 0.934375 13.7718 1.11875 13.5905L12.9062 1.7999C13.0906 1.61553 13.3875 1.61553 13.5688 1.7999C13.7531 1.98428 13.7531 2.28115 13.5688 2.4624L1.78125 14.253C1.6875 14.3437 1.56875 14.3905 1.45 14.3905Z" fill="#2F4858"/>
</svg>
