<svg width="1170" height="395" viewBox="0 0 1170 395" fill="none" xmlns="http://www.w3.org/2000/svg">
<mask id="mask0" mask-type="alpha" maskUnits="userSpaceOnUse" x="0" y="0" width="1170" height="395">
<rect width="1170" height="395" fill="#F7F7F8"/>
</mask>
<g mask="url(#mask0)">
<path opacity="0.6" d="M1007.87 -5.019C964.349 109.631 926.967 80.155 840.848 140.31C760.18 196.609 774.482 268.832 713.173 331.331C655.744 389.84 541.389 371.782 518.849 474.634C489.226 609.797 613.599 576.283 703.45 570.316C820.531 562.545 938.655 558.114 1055.04 542.645C1105.17 535.979 1200.88 539.085 1238.51 507.719C1287.88 466.568 1255.55 424.435 1240.3 353.797C1219.43 257.279 1228.45 43.9394 1173.5 -33.1689C1136.4 -85.221 1035.68 -78.248 1007.87 -5.019Z" fill="white"/>
<path d="M1122.3 118.249C1034.17 203.509 1012.85 160.934 909.302 178.747C812.318 195.406 794.591 266.855 712.523 297.362C635.697 325.917 539.879 260.95 475.747 344.454C391.457 454.206 518.297 476.733 602.194 509.548C711.455 552.295 820.273 598.515 932.197 633.994C980.395 649.266 1065.7 692.774 1113.09 680.387C1175.28 664.133 1163.93 612.253 1180.17 541.835C1202.35 445.625 1301.19 256.346 1284.24 163.193C1272.75 100.301 1178.61 63.7781 1122.3 118.249Z" fill="#E1F6E8"/>
<path d="M1014.83 685.569C1014.84 685.572 1014.85 685.576 1014.85 685.58C1055.93 701.76 1105.47 721.267 1142.69 721.267L1014.83 685.569ZM1014.83 685.569C998.46 679.115 983.002 673.031 970.181 668.909C970.172 668.906 970.163 668.903 970.154 668.9C879.525 639.74 789.505 603.386 702.386 568.203L701.335 567.779L1014.83 685.569ZM1174.66 121.651L1174.64 121.667L1175.97 120.851L1175.75 120.618L1174.66 121.649L1174.66 121.651Z" stroke="white" stroke-width="3"/>
<path d="M847.235 153.814L824.674 156.902C822.572 157.19 821.102 159.128 821.389 161.232L823.088 173.662C823.376 175.765 825.313 177.237 827.415 176.949L849.975 173.861C852.077 173.573 853.548 171.634 853.26 169.531L851.561 157.101C851.274 154.998 849.336 153.526 847.235 153.814Z" fill="#F55147"/>
<path d="M842.288 164.691L833.579 161.139L834.855 170.465L842.288 164.691Z" fill="white"/>
<path d="M815.912 145.096C807.953 145.103 800.188 142.641 793.686 138.048C787.184 133.455 782.265 126.958 779.606 119.451C776.947 111.944 776.679 103.797 778.84 96.1315C781 88.466 785.482 81.6593 791.668 76.6489C797.855 71.6386 805.441 68.6709 813.383 68.1547C821.325 67.6385 829.231 69.5992 836.013 73.7667C842.795 77.9342 848.119 84.1035 851.252 91.425C854.385 98.7464 855.173 106.86 853.506 114.648C851.692 123.274 846.963 131.012 840.116 136.558C833.268 142.104 824.721 145.119 815.912 145.096ZM815.912 69.4615C806.415 69.4664 797.283 73.1171 790.397 79.661C783.511 86.2049 779.396 95.1433 778.9 104.634C778.404 114.124 781.566 123.443 787.732 130.67C793.899 137.897 802.602 142.48 812.046 143.476C821.49 144.472 830.955 141.804 838.492 136.022C846.028 130.24 851.061 121.785 852.552 112.399C854.044 103.014 851.88 93.4136 846.508 85.5772C841.136 77.7408 832.964 72.2656 823.677 70.2803C821.125 69.7365 818.522 69.462 815.912 69.4615Z" fill="#64A9EF"/>
<path d="M815.912 131.801C814.122 131.797 812.337 131.607 810.587 131.232C804.344 129.875 798.859 126.175 795.26 120.893C791.662 115.611 790.223 109.15 791.242 102.839C792.26 96.5275 795.658 90.8473 800.735 86.9675C805.812 83.0876 812.182 81.3034 818.534 81.9821C824.886 82.6608 830.736 85.7508 834.88 90.6159C839.024 95.4811 841.147 101.751 840.811 108.135C840.475 114.519 837.706 120.531 833.074 124.934C828.442 129.336 822.3 131.794 815.912 131.801ZM815.912 82.7568C809.827 82.7712 803.98 85.1203 799.574 89.32C795.169 93.5198 792.54 99.2504 792.23 105.332C791.92 111.413 793.952 117.381 797.908 122.008C801.864 126.635 807.442 129.567 813.493 130.201C819.545 130.835 825.609 129.122 830.436 125.416C835.264 121.709 838.487 116.291 839.442 110.278C840.397 104.264 839.012 98.1128 835.571 93.0911C832.13 88.0693 826.895 84.5593 820.946 83.2842C819.291 82.9311 817.604 82.7544 815.912 82.7568Z" fill="#1B76B6"/>
<path d="M815.912 117.27C815.153 117.284 814.395 117.214 813.651 117.062C811.228 116.547 809.058 115.206 807.512 113.268C805.966 111.331 805.14 108.917 805.173 106.438C805.207 103.959 806.099 101.568 807.696 99.6731C809.294 97.7783 811.499 96.4968 813.936 96.0469C816.372 95.5971 818.889 96.0069 821.057 97.2064C823.226 98.4059 824.911 100.321 825.826 102.625C826.742 104.929 826.83 107.479 826.077 109.841C825.323 112.203 823.774 114.23 821.694 115.577C819.972 116.691 817.963 117.28 815.912 117.27ZM815.912 97.2725C813.605 97.2522 811.373 98.0915 809.65 99.6271C807.928 101.163 806.838 103.285 806.592 105.58C806.346 107.876 806.963 110.181 808.321 112.046C809.68 113.912 811.684 115.205 813.943 115.674C815.14 115.938 816.378 115.961 817.585 115.744C818.791 115.527 819.943 115.073 820.974 114.409C822.005 113.745 822.895 112.883 823.592 111.874C824.289 110.865 824.78 109.727 825.037 108.527C825.297 107.329 825.32 106.091 825.102 104.884C824.884 103.677 824.43 102.525 823.767 101.494C823.104 100.462 822.243 99.5722 821.236 98.8741C820.228 98.1759 819.093 97.6835 817.895 97.4251C817.241 97.3054 816.576 97.2543 815.912 97.2725Z" fill="#64A9EF"/>
<path d="M817.035 105.835L797.038 74.9294L800.061 69.6836C800.183 69.4726 800.247 69.2333 800.247 68.9897C800.247 68.7461 800.183 68.5068 800.061 68.2958L792.503 56.6245C792.378 56.4298 792.205 56.2696 792.002 56.1587C791.798 56.0478 791.57 55.9897 791.339 55.9897C791.107 55.9897 790.879 56.0478 790.675 56.1587C790.472 56.2696 790.299 56.4298 790.174 56.6245L787.081 62.0369L780.924 62.6753C780.696 62.7063 780.479 62.7937 780.293 62.9295C780.108 63.0652 779.958 63.2452 779.859 63.4531C779.76 63.661 779.714 63.8903 779.726 64.1204C779.738 64.3504 779.806 64.574 779.926 64.7708L787.456 76.4144C787.58 76.6033 787.749 76.759 787.947 76.8679C788.145 76.9767 788.367 77.0354 788.593 77.0389H788.732L794.75 76.4282L814.747 107.348C814.948 107.647 815.257 107.856 815.608 107.931C815.96 108.006 816.328 107.941 816.633 107.751C816.939 107.549 817.153 107.235 817.229 106.876C817.304 106.517 817.234 106.143 817.035 105.835ZM783.42 65.1594L788.052 64.6876C788.266 64.663 788.472 64.5887 788.652 64.4706C788.833 64.3526 788.984 64.194 789.092 64.0076L791.422 59.9691L797.288 69.0452L794.611 73.6804L789.286 74.2355L783.42 65.1594Z" fill="#8F6EA4"/>
<path d="M723.569 191.559C723.569 191.559 738.948 199.372 739.96 223.09C741.083 249.138 767.182 254.731 773.505 272.356C778.386 285.956 790.146 309.452 812.958 294.006C842.759 273.772 833.482 246.432 801.434 233.789C777.61 224.394 786.97 210.197 772.77 197.235C758.251 183.912 741.028 181.748 723.569 191.559Z" fill="#64A9EF"/>
<path d="M826.909 296.892C804.846 296.892 793.169 280.377 787.9 269.58C784.405 262.405 778.081 257.409 771.383 252.136C761.676 244.517 751.733 236.648 747.92 221.16C742.262 198.206 723.582 192.156 723.402 192.1C723.329 192.081 723.26 192.047 723.2 192.001C723.14 191.955 723.09 191.897 723.052 191.831C723.015 191.765 722.991 191.692 722.982 191.617C722.973 191.542 722.979 191.465 723 191.392C723.02 191.32 723.055 191.253 723.102 191.195C723.149 191.137 723.208 191.089 723.274 191.054C723.34 191.019 723.412 190.998 723.487 190.992C723.561 190.985 723.636 190.994 723.707 191.018C723.901 191.018 743.122 197.291 749.001 220.897C752.718 235.996 762.55 243.754 772.049 251.248C778.858 256.604 785.279 261.67 788.898 269.081C794.819 281.168 808.978 300.556 837.018 294.699C837.165 294.671 837.317 294.701 837.442 294.784C837.567 294.867 837.653 294.996 837.684 295.143C837.7 295.215 837.702 295.29 837.689 295.363C837.676 295.435 837.648 295.505 837.608 295.567C837.568 295.629 837.516 295.682 837.456 295.724C837.395 295.765 837.326 295.795 837.254 295.809C833.852 296.529 830.385 296.891 826.909 296.892Z" fill="#1B76B6"/>
<path d="M748.1 220.189C747.952 220.189 747.809 220.131 747.703 220.027C747.597 219.924 747.535 219.782 747.531 219.634C746.963 199.858 755.061 192.42 755.408 192.114C755.46 192.06 755.522 192.016 755.591 191.986C755.661 191.957 755.735 191.941 755.81 191.941C755.885 191.941 755.96 191.957 756.029 191.986C756.098 192.016 756.161 192.06 756.212 192.114C756.316 192.223 756.374 192.367 756.374 192.517C756.374 192.667 756.316 192.811 756.212 192.919C756.129 192.919 748.155 200.358 748.71 219.565C748.712 219.639 748.699 219.714 748.672 219.783C748.645 219.853 748.605 219.917 748.553 219.971C748.502 220.025 748.44 220.069 748.372 220.099C748.304 220.129 748.23 220.146 748.155 220.147L748.1 220.189Z" fill="#1B76B6"/>
<path d="M767.958 249.263C767.831 249.263 767.707 249.218 767.609 249.137C767.51 249.056 767.443 248.944 767.417 248.819C762.536 227.336 773.436 210.1 773.547 209.961C773.586 209.898 773.638 209.844 773.698 209.802C773.759 209.759 773.828 209.729 773.9 209.714C773.972 209.698 774.047 209.698 774.12 209.711C774.192 209.725 774.262 209.754 774.323 209.795C774.45 209.877 774.54 210.006 774.574 210.153C774.607 210.301 774.582 210.456 774.504 210.586C767.924 222.1 765.792 235.629 768.513 248.611C768.531 248.684 768.535 248.76 768.523 248.834C768.511 248.908 768.484 248.98 768.444 249.043C768.403 249.107 768.351 249.162 768.289 249.204C768.227 249.247 768.157 249.276 768.083 249.291L767.958 249.263Z" fill="#1B76B6"/>
<path d="M790.534 273.882C790.391 273.879 790.254 273.824 790.15 273.727C790.045 273.63 789.979 273.497 789.966 273.355C789.037 256.896 807.716 242.893 808.506 242.296C808.628 242.209 808.779 242.173 808.927 242.196C809.075 242.219 809.208 242.3 809.297 242.421C809.343 242.48 809.376 242.547 809.396 242.619C809.415 242.691 809.42 242.766 809.409 242.84C809.399 242.914 809.374 242.985 809.335 243.049C809.297 243.113 809.246 243.168 809.186 243.212C808.992 243.351 790.201 257.451 791.158 273.285C791.166 273.434 791.115 273.58 791.017 273.691C790.918 273.803 790.78 273.872 790.631 273.882H790.534Z" fill="#1B76B6"/>
<path d="M753.592 233.914C753.512 233.913 753.435 233.895 753.363 233.861C753.291 233.828 753.228 233.78 753.176 233.72C747.226 227.156 742.484 228.169 742.442 228.169C742.295 228.202 742.141 228.175 742.013 228.095C741.886 228.014 741.796 227.886 741.763 227.739C741.744 227.667 741.74 227.592 741.751 227.518C741.762 227.445 741.788 227.374 741.827 227.311C741.866 227.247 741.917 227.192 741.977 227.149C742.038 227.106 742.106 227.075 742.179 227.059C742.387 227.059 747.573 225.837 754.021 232.957C754.074 233.008 754.115 233.07 754.144 233.138C754.172 233.206 754.187 233.279 754.187 233.352C754.187 233.426 754.172 233.499 754.144 233.567C754.115 233.635 754.074 233.696 754.021 233.748C753.964 233.803 753.897 233.846 753.823 233.874C753.749 233.903 753.671 233.917 753.592 233.914Z" fill="#1B76B6"/>
<path d="M780.938 260.004C780.814 260.002 780.694 259.963 780.591 259.893C774.337 255.216 767.071 258.145 767.001 258.172C766.862 258.231 766.704 258.232 766.564 258.175C766.423 258.118 766.311 258.007 766.252 257.867C766.194 257.727 766.193 257.57 766.25 257.429C766.307 257.289 766.418 257.177 766.558 257.118C768.972 256.206 771.573 255.899 774.133 256.226C776.693 256.553 779.135 257.502 781.243 258.991C781.339 259.062 781.411 259.161 781.447 259.275C781.484 259.389 781.483 259.511 781.447 259.625C781.41 259.738 781.338 259.838 781.242 259.908C781.146 259.979 781.03 260.017 780.91 260.018L780.938 260.004Z" fill="#1B76B6"/>
<path d="M800.658 286.706C800.527 286.705 800.4 286.661 800.297 286.581C792.781 280.239 784.627 285.443 784.544 285.498C784.418 285.578 784.267 285.604 784.121 285.573C783.976 285.542 783.849 285.456 783.767 285.332C783.687 285.204 783.66 285.05 783.691 284.903C783.722 284.755 783.809 284.626 783.933 284.541C784.017 284.541 792.878 278.837 801.032 285.707C801.12 285.783 801.182 285.884 801.211 285.996C801.24 286.109 801.233 286.228 801.192 286.337C801.151 286.445 801.078 286.539 800.983 286.605C800.887 286.671 800.774 286.706 800.658 286.706Z" fill="#1B76B6"/>
<path d="M784.724 144.194C784.724 144.194 784.017 157.308 799.271 167.162C816.036 177.917 809.699 197.332 818.907 208.282C826.007 216.747 836.935 233.581 818.033 242.699C793.211 254.634 778.719 237.98 782.699 211.932C785.667 192.503 772.729 193.308 769.581 178.916C766.336 164.247 771.536 151.938 784.724 144.194Z" fill="#93DF97"/>
<path d="M809.505 259.588C809.398 259.588 809.294 259.548 809.214 259.477C809.135 259.392 809.091 259.281 809.091 259.165C809.091 259.049 809.135 258.937 809.214 258.853C823.927 242.546 816.536 225.768 810.822 217.219C807.328 211.987 806.454 205.784 805.525 199.178C804.235 190.018 802.89 180.54 794.348 172.269C781.007 159.348 784.308 144.208 784.349 144.055C784.359 143.998 784.381 143.944 784.412 143.896C784.444 143.848 784.485 143.807 784.533 143.776C784.581 143.745 784.635 143.724 784.692 143.714C784.749 143.705 784.807 143.708 784.863 143.722C784.918 143.735 784.971 143.759 785.018 143.793C785.064 143.826 785.104 143.869 785.133 143.918C785.163 143.967 785.183 144.022 785.191 144.079C785.199 144.136 785.196 144.194 785.182 144.249C785.182 144.388 781.964 159.071 794.889 171.644C803.639 180.124 804.998 189.685 806.315 199.067C807.231 205.52 808.09 211.557 811.474 216.692C817.326 225.449 824.898 242.643 809.796 259.394C809.764 259.445 809.721 259.489 809.671 259.522C809.621 259.556 809.564 259.578 809.505 259.588Z" fill="#64CC9C"/>
<path d="M793.821 171.644C793.749 171.67 793.671 171.67 793.599 171.644C781.118 163.873 773.186 166.329 773.117 166.357C773.006 166.392 772.887 166.383 772.783 166.331C772.679 166.279 772.6 166.189 772.562 166.079C772.527 165.971 772.537 165.853 772.589 165.751C772.641 165.65 772.731 165.573 772.84 165.538C773.172 165.427 781.16 162.929 794.057 170.909C794.152 170.971 794.219 171.068 794.245 171.179C794.271 171.291 794.253 171.407 794.195 171.506C794.149 171.557 794.09 171.597 794.025 171.621C793.96 171.645 793.89 171.653 793.821 171.644Z" fill="#64CC9C"/>
<path d="M805.386 195.958C805.33 195.958 805.274 195.948 805.221 195.926C805.169 195.905 805.121 195.873 805.081 195.833C797.561 189.039 787.81 185.246 777.679 185.175C777.622 185.179 777.564 185.171 777.509 185.152C777.455 185.133 777.405 185.103 777.362 185.064C777.319 185.025 777.285 184.978 777.261 184.926C777.237 184.873 777.223 184.816 777.222 184.759C777.218 184.643 777.259 184.531 777.337 184.445C777.414 184.36 777.522 184.308 777.638 184.301C788.002 184.388 797.976 188.268 805.678 195.209C805.72 195.248 805.753 195.295 805.776 195.348C805.799 195.4 805.811 195.457 805.811 195.514C805.811 195.571 805.799 195.628 805.776 195.681C805.753 195.733 805.72 195.78 805.678 195.819C805.601 195.901 805.497 195.95 805.386 195.958Z" fill="#64CC9C"/>
<path d="M785.75 220.716C785.665 220.714 785.583 220.688 785.512 220.641C785.441 220.595 785.384 220.529 785.348 220.453C785.306 220.346 785.307 220.227 785.351 220.12C785.395 220.014 785.478 219.929 785.584 219.884C786.277 219.578 802.71 212.625 813.208 219.564C813.303 219.627 813.37 219.725 813.393 219.837C813.417 219.949 813.395 220.065 813.332 220.161C813.27 220.257 813.172 220.324 813.06 220.347C812.948 220.371 812.832 220.349 812.736 220.286C802.627 213.611 786.083 220.605 785.93 220.675C785.874 220.701 785.812 220.716 785.75 220.716Z" fill="#64CC9C"/>
<path d="M800.768 180.554C800.677 180.551 800.588 180.52 800.513 180.466C800.439 180.411 800.383 180.335 800.352 180.249C798.134 173.31 800.907 170.27 801.018 170.159C801.057 170.118 801.104 170.086 801.156 170.063C801.208 170.04 801.264 170.027 801.32 170.026C801.377 170.025 801.433 170.035 801.486 170.055C801.539 170.076 801.587 170.106 801.628 170.146C801.669 170.185 801.702 170.232 801.725 170.283C801.748 170.335 801.76 170.391 801.762 170.448C801.763 170.505 801.753 170.561 801.732 170.614C801.712 170.667 801.681 170.715 801.642 170.756C801.642 170.756 799.132 173.532 801.185 179.985C801.216 180.095 801.206 180.214 801.154 180.317C801.103 180.42 801.015 180.499 800.907 180.54L800.768 180.554Z" fill="#64CC9C"/>
<path d="M807.494 208.657C807.387 208.657 807.284 208.617 807.204 208.546C807.125 208.474 807.075 208.375 807.064 208.268C806.892 206.299 807.205 204.318 807.976 202.498C808.747 200.678 809.953 199.076 811.488 197.832C811.533 197.796 811.585 197.771 811.641 197.756C811.696 197.741 811.754 197.737 811.811 197.745C811.868 197.752 811.922 197.772 811.972 197.801C812.021 197.83 812.064 197.869 812.098 197.915C812.133 197.959 812.159 198.01 812.174 198.064C812.188 198.119 812.192 198.176 812.184 198.231C812.176 198.287 812.157 198.341 812.128 198.389C812.099 198.437 812.061 198.479 812.015 198.512C810.606 199.685 809.499 201.18 808.787 202.871C808.076 204.561 807.78 206.398 807.924 208.226C807.927 208.325 807.895 208.422 807.834 208.501C807.774 208.579 807.688 208.634 807.591 208.657H807.494Z" fill="#D3332F"/>
<path d="M817.548 231.971C817.446 231.97 817.347 231.933 817.269 231.867C817.191 231.802 817.137 231.711 817.118 231.61C815.731 223.575 822.845 219.897 822.915 219.856C822.965 219.828 823.021 219.81 823.078 219.805C823.136 219.8 823.194 219.806 823.249 219.825C823.304 219.843 823.354 219.872 823.397 219.911C823.439 219.95 823.474 219.997 823.497 220.05C823.524 220.1 823.54 220.155 823.546 220.212C823.551 220.268 823.545 220.325 823.528 220.379C823.511 220.433 823.484 220.484 823.448 220.527C823.412 220.571 823.367 220.607 823.317 220.633C821.398 221.64 819.847 223.231 818.887 225.176C817.928 227.121 817.61 229.32 817.978 231.458C817.994 231.573 817.966 231.691 817.899 231.786C817.832 231.881 817.732 231.948 817.617 231.971H817.548Z" fill="#D3332F"/>
<path d="M1006.6 66.5332C1006.6 66.5332 1004.05 74.4019 992.915 76.664C980.671 79.1343 979.977 91.9297 972.114 96.2179C966.04 99.5486 955.806 106.89 964.82 116.521C976.607 129.136 988.852 122.697 992.444 106.571C995.107 94.5942 1002.5 97.9665 1007.6 90.2782C1012.7 82.5899 1012.54 74.0411 1006.6 66.5332Z" fill="#93DF97"/>
<path d="M966.04 128.345C965.985 128.345 965.931 128.328 965.887 128.295C965.842 128.263 965.808 128.217 965.791 128.165C960.757 114.953 969.091 106.626 974.5 102.838C977.62 100.645 979.52 97.2866 981.516 93.7061C984.387 88.5713 987.368 83.2422 994.413 80.2862C997.376 79.1407 1000.01 77.2852 1002.09 74.8826C1004.17 72.48 1005.63 69.6036 1006.34 66.5055C1006.34 66.4695 1006.35 66.4345 1006.37 66.4028C1006.39 66.3711 1006.41 66.3433 1006.44 66.3211C1006.47 66.299 1006.5 66.283 1006.54 66.2741C1006.57 66.2653 1006.61 66.2637 1006.64 66.2696C1006.68 66.2747 1006.71 66.2866 1006.74 66.3048C1006.77 66.323 1006.8 66.347 1006.82 66.3755C1006.84 66.4039 1006.85 66.4362 1006.86 66.4705C1006.87 66.5047 1006.87 66.5402 1006.87 66.5749C1006.15 69.7677 1004.66 72.7344 1002.52 75.2129C1000.38 77.6914 997.671 79.6054 994.621 80.7858C987.687 83.6724 984.817 88.9044 981.988 93.9698C979.949 97.5919 978.036 101.02 974.805 103.282C969.521 106.973 961.395 115.106 966.29 127.971C966.317 128.039 966.317 128.115 966.288 128.182C966.26 128.25 966.205 128.304 966.137 128.331L966.04 128.345Z" fill="#64CC9C"/>
<path d="M1008.54 82.1462C1008.49 82.1664 1008.43 82.1664 1008.38 82.1462C1008.38 82.1462 1004.22 78.8849 995.204 80.578C995.132 80.5902 995.058 80.5737 994.999 80.5322C994.939 80.4907 994.898 80.4274 994.885 80.3559C994.879 80.3213 994.88 80.2858 994.888 80.2515C994.896 80.2172 994.911 80.1849 994.931 80.1565C994.952 80.128 994.978 80.104 995.008 80.0858C995.038 80.0677 995.072 80.0557 995.106 80.0506C1004.41 78.302 1008.54 81.5772 1008.71 81.716C1008.76 81.7679 1008.79 81.8376 1008.79 81.9103C1008.79 81.9829 1008.76 82.0527 1008.71 82.1046C1008.66 82.1377 1008.6 82.1524 1008.54 82.1462Z" fill="#64CC9C"/>
<path d="M1001.53 92.0824H1001.42C995.48 89.8253 988.923 89.8253 982.986 92.0824C982.954 92.0957 982.919 92.1024 982.883 92.1019C982.848 92.1014 982.813 92.0938 982.781 92.0796C982.748 92.0653 982.719 92.0447 982.695 92.019C982.671 91.9932 982.652 91.9629 982.64 91.9297C982.624 91.8972 982.616 91.8618 982.615 91.8258C982.615 91.7898 982.622 91.7541 982.636 91.7212C982.651 91.6882 982.672 91.6588 982.699 91.6349C982.726 91.611 982.758 91.5932 982.792 91.5828C988.862 89.2693 995.569 89.2693 1001.64 91.5828C1001.67 91.5962 1001.7 91.6165 1001.73 91.6424C1001.75 91.6682 1001.77 91.699 1001.79 91.7329C1001.8 91.7668 1001.8 91.803 1001.8 91.8392C1001.8 91.8755 1001.79 91.911 1001.78 91.9436C1001.75 91.9872 1001.72 92.0231 1001.67 92.0476C1001.63 92.072 1001.58 92.0841 1001.53 92.0824Z" fill="#64CC9C"/>
<path d="M988.741 111.04C988.668 111.038 988.598 111.009 988.547 110.956C988.464 110.873 980.407 103.032 972.974 104.628C972.939 104.636 972.902 104.637 972.866 104.631C972.83 104.625 972.796 104.612 972.765 104.593C972.734 104.574 972.707 104.548 972.686 104.519C972.665 104.489 972.65 104.455 972.641 104.42C972.629 104.348 972.646 104.275 972.687 104.215C972.729 104.155 972.792 104.114 972.863 104.101C980.546 102.435 988.589 110.235 988.922 110.568C988.973 110.62 989.001 110.689 989.001 110.762C989.001 110.835 988.973 110.904 988.922 110.956C988.874 111.005 988.81 111.035 988.741 111.04Z" fill="#64CC9C"/>
<path d="M989.074 84.1583C989.024 84.1558 988.975 84.1396 988.933 84.1115C988.891 84.0835 988.858 84.0445 988.837 83.9988C988.815 83.9532 988.807 83.9026 988.812 83.8524C988.817 83.8022 988.836 83.7545 988.866 83.7142C991.529 80.3974 990.641 78.2047 990.641 78.2047C990.628 78.1719 990.621 78.1368 990.622 78.1015C990.622 78.0661 990.63 78.0312 990.644 77.9988C990.658 77.9664 990.679 77.9373 990.705 77.913C990.73 77.8888 990.761 77.87 990.794 77.8577C990.86 77.8294 990.935 77.828 991.002 77.8539C991.069 77.8799 991.124 77.931 991.154 77.9965C991.154 78.1075 992.125 80.4667 989.241 84.0472C989.202 84.1047 989.142 84.1446 989.074 84.1583Z" fill="#64CC9C"/>
<path d="M978.771 99.0214H978.632C978.57 98.9838 978.525 98.9247 978.504 98.8554C978.484 98.7862 978.49 98.7118 978.521 98.6467C979.016 97.617 979.257 96.4833 979.224 95.3409C979.19 94.1986 978.882 93.081 978.327 92.0825C978.29 92.0213 978.278 91.9482 978.293 91.8784C978.309 91.8086 978.351 91.7475 978.41 91.7078C978.441 91.6881 978.475 91.6751 978.511 91.6693C978.547 91.6636 978.583 91.6653 978.619 91.6745C978.654 91.6836 978.687 91.6999 978.715 91.7223C978.744 91.7448 978.767 91.7729 978.785 91.8049C979.403 92.8796 979.747 94.0903 979.785 95.3298C979.824 96.5693 979.556 97.7992 979.006 98.9104C978.978 98.9459 978.943 98.9745 978.902 98.9938C978.861 99.013 978.816 99.0225 978.771 99.0214Z" fill="#64CC9C"/>
<path d="M967.607 110.387C967.562 110.401 967.514 110.401 967.469 110.387C967.407 110.35 967.362 110.289 967.344 110.219C967.326 110.149 967.336 110.075 967.372 110.012C968.06 108.841 968.366 107.484 968.247 106.131C968.128 104.777 967.589 103.495 966.706 102.463C966.681 102.438 966.662 102.409 966.648 102.377C966.635 102.345 966.628 102.31 966.628 102.275C966.628 102.241 966.635 102.206 966.648 102.174C966.662 102.142 966.681 102.113 966.706 102.088C966.758 102.037 966.828 102.009 966.9 102.009C966.973 102.009 967.042 102.037 967.094 102.088C968.044 103.212 968.623 104.602 968.752 106.068C968.881 107.534 968.554 109.004 967.815 110.276C967.79 110.308 967.759 110.334 967.723 110.354C967.687 110.373 967.648 110.384 967.607 110.387Z" fill="#D3332F"/>
<path d="M1030.3 117.423C1030.3 117.423 1017.82 116.105 1007.85 130.177C996.882 145.623 978.729 138.712 967.926 146.969C959.606 153.339 943.09 163.012 935.296 144.568C925.104 120.448 941.565 107.431 966.11 112.399C984.359 116.091 984.235 103.753 998.005 101.422C1012.16 99.021 1023.56 104.572 1030.3 117.423Z" fill="#64A9EF"/>
<path d="M941.024 145.456C934.27 145.456 926.879 143.083 919.779 136.033C919.706 135.954 919.665 135.85 919.665 135.742C919.665 135.634 919.706 135.53 919.779 135.45C919.816 135.411 919.861 135.38 919.911 135.358C919.962 135.337 920.015 135.326 920.07 135.326C920.124 135.326 920.178 135.337 920.228 135.358C920.278 135.38 920.324 135.411 920.361 135.45C935.185 150.175 951.438 143.916 959.814 138.864C964.945 135.784 970.908 135.228 977.134 134.701C985.885 133.896 994.954 133.05 1003.19 125.306C1016.06 113.204 1030.27 116.979 1030.43 117.076C1030.53 117.108 1030.62 117.18 1030.67 117.276C1030.72 117.372 1030.73 117.485 1030.7 117.59C1030.69 117.643 1030.67 117.692 1030.63 117.735C1030.6 117.779 1030.56 117.815 1030.51 117.842C1030.46 117.869 1030.41 117.887 1030.35 117.893C1030.3 117.9 1030.24 117.896 1030.19 117.881C1030.07 117.881 1016.32 114.148 1003.75 125.916C995.301 133.855 986.107 134.701 977.204 135.534C971.033 136.103 965.208 136.644 960.244 139.628C954.471 143.251 947.835 145.264 941.024 145.456Z" fill="#1B76B6"/>
<path d="M1004.25 125.25C1004.17 125.269 1004.1 125.269 1004.02 125.25C1003.98 125.221 1003.94 125.183 1003.91 125.138C1003.88 125.093 1003.86 125.043 1003.85 124.989C1003.84 124.936 1003.84 124.882 1003.85 124.829C1003.86 124.776 1003.88 124.726 1003.91 124.681C1011.83 113.177 1009.89 105.53 1009.86 105.447C1009.85 105.395 1009.84 105.34 1009.85 105.287C1009.86 105.233 1009.87 105.182 1009.9 105.135C1009.93 105.088 1009.96 105.048 1010.01 105.015C1010.05 104.983 1010.1 104.96 1010.15 104.947C1010.26 104.917 1010.37 104.929 1010.47 104.981C1010.56 105.033 1010.63 105.12 1010.67 105.225C1010.75 105.558 1012.75 113.301 1004.59 125.139C1004.55 125.184 1004.49 125.217 1004.43 125.236C1004.37 125.256 1004.31 125.26 1004.25 125.25Z" fill="#1B76B6"/>
<path d="M980.657 135.104C980.6 135.104 980.544 135.093 980.492 135.072C980.439 135.05 980.392 135.019 980.352 134.979C980.275 134.901 980.233 134.797 980.233 134.688C980.233 134.579 980.275 134.474 980.352 134.396C987.135 127.552 991.18 118.458 991.723 108.833C991.721 108.778 991.73 108.723 991.751 108.671C991.771 108.62 991.801 108.573 991.84 108.534C991.879 108.495 991.926 108.465 991.977 108.444C992.029 108.424 992.084 108.415 992.139 108.417C992.193 108.417 992.246 108.428 992.296 108.449C992.346 108.47 992.391 108.501 992.428 108.539C992.466 108.578 992.495 108.624 992.514 108.675C992.534 108.725 992.543 108.779 992.541 108.833C992.005 118.69 987.875 128.007 980.934 135.021C980.853 135.077 980.756 135.106 980.657 135.104Z" fill="#1B76B6"/>
<path d="M957.152 141.238C957.061 141.24 956.973 141.211 956.902 141.155C956.815 141.091 956.757 140.996 956.739 140.89C956.721 140.784 956.744 140.675 956.805 140.586C963.614 131.274 957.72 115.245 957.665 115.078C957.645 115.028 957.635 114.975 957.636 114.921C957.637 114.867 957.649 114.814 957.671 114.765C957.693 114.716 957.725 114.671 957.764 114.635C957.803 114.598 957.85 114.57 957.9 114.551C958.002 114.515 958.113 114.519 958.211 114.563C958.31 114.607 958.387 114.687 958.427 114.787C958.677 115.467 964.543 131.44 957.484 141.072C957.446 141.123 957.395 141.165 957.338 141.194C957.28 141.223 957.216 141.238 957.152 141.238Z" fill="#0854C1"/>
<path d="M1004.63 132.425C1004.58 132.426 1004.52 132.415 1004.47 132.393C1004.42 132.372 1004.37 132.34 1004.33 132.3C1004.33 132.3 1001.79 129.789 995.592 131.44C995.539 131.455 995.484 131.459 995.429 131.452C995.375 131.446 995.323 131.428 995.275 131.401C995.227 131.374 995.185 131.338 995.152 131.294C995.118 131.251 995.093 131.201 995.079 131.149C995.064 131.097 995.06 131.042 995.067 130.989C995.074 130.935 995.091 130.884 995.119 130.837C995.146 130.79 995.182 130.75 995.225 130.717C995.268 130.685 995.318 130.662 995.37 130.649C1002.11 128.859 1004.81 131.62 1004.92 131.731C1004.96 131.769 1005 131.814 1005.02 131.864C1005.04 131.914 1005.05 131.968 1005.05 132.023C1005.05 132.077 1005.04 132.131 1005.02 132.181C1005 132.232 1004.96 132.277 1004.92 132.314C1004.89 132.353 1004.84 132.382 1004.79 132.402C1004.74 132.421 1004.69 132.429 1004.63 132.425Z" fill="#1B76B6"/>
<path d="M977.828 141.071C977.762 141.072 977.696 141.056 977.638 141.024C977.58 140.993 977.53 140.947 977.495 140.891C976.455 139.503 975.097 138.386 973.536 137.632C971.975 136.879 970.255 136.511 968.523 136.561C968.468 136.569 968.413 136.565 968.36 136.55C968.308 136.535 968.259 136.509 968.217 136.473C968.175 136.438 968.141 136.394 968.117 136.344C968.093 136.295 968.08 136.241 968.079 136.186C968.075 136.131 968.082 136.076 968.1 136.024C968.117 135.973 968.145 135.925 968.181 135.883C968.217 135.842 968.261 135.808 968.31 135.784C968.359 135.76 968.413 135.745 968.467 135.742C970.345 135.674 972.21 136.066 973.902 136.883C975.594 137.701 977.06 138.919 978.174 140.433C978.206 140.477 978.227 140.527 978.239 140.58C978.25 140.633 978.25 140.688 978.24 140.741C978.23 140.794 978.209 140.844 978.178 140.889C978.148 140.934 978.109 140.972 978.064 141.002C977.992 141.045 977.911 141.069 977.828 141.071Z" fill="#1B76B6"/>
<path d="M956.389 150.869C956.307 150.869 956.227 150.845 956.158 150.801C956.089 150.756 956.035 150.694 956 150.619C955.134 148.749 953.696 147.203 951.893 146.205C950.091 145.207 948.018 144.809 945.974 145.068C945.92 145.076 945.864 145.073 945.81 145.059C945.757 145.045 945.707 145.02 945.663 144.987C945.619 144.953 945.582 144.911 945.555 144.863C945.527 144.815 945.51 144.762 945.503 144.707C945.491 144.599 945.522 144.49 945.59 144.405C945.657 144.319 945.755 144.263 945.863 144.249C953.532 143.278 956.722 150.231 956.763 150.3C956.806 150.4 956.808 150.512 956.769 150.613C956.73 150.714 956.653 150.796 956.555 150.841C956.503 150.863 956.446 150.873 956.389 150.869Z" fill="#1B76B6"/>
<path d="M966.762 341.065V295.268C967.095 295.294 967.43 295.25 967.745 295.139C968.06 295.029 968.35 294.855 968.595 294.628C968.84 294.4 969.035 294.125 969.169 293.818C969.303 293.512 969.372 293.181 969.372 292.847C969.372 292.512 969.303 292.181 969.169 291.875C969.035 291.568 968.84 291.293 968.595 291.066C968.35 290.838 968.06 290.664 967.745 290.554C967.43 290.444 967.095 290.4 966.762 290.425H788.26C780.904 290.425 773.85 293.349 768.649 298.554C763.447 303.76 760.525 310.819 760.525 318.181C760.525 325.542 763.447 332.602 768.649 337.807C773.85 343.012 780.904 345.936 788.26 345.936H966.762C967.095 345.962 967.43 345.918 967.745 345.807C968.06 345.697 968.35 345.523 968.595 345.296C968.84 345.068 969.035 344.793 969.169 344.486C969.303 344.18 969.372 343.849 969.372 343.515C969.372 343.18 969.303 342.849 969.169 342.543C969.035 342.237 968.84 341.961 968.595 341.734C968.35 341.506 968.06 341.332 967.745 341.222C967.43 341.112 967.095 341.068 966.762 341.093V341.065Z" fill="#1B76B6"/>
<path d="M1030.36 343.48H882.323C879.001 343.48 875.712 342.825 872.643 341.553C869.574 340.281 866.786 338.416 864.437 336.066C862.088 333.715 860.225 330.925 858.954 327.854C857.683 324.783 857.029 321.491 857.029 318.167C857.029 314.843 857.683 311.551 858.954 308.48C860.225 305.409 862.088 302.618 864.437 300.268C866.786 297.917 869.574 296.052 872.643 294.78C875.712 293.508 879.001 292.854 882.323 292.854H1030.36C1026.11 292.854 1026.11 343.48 1030.36 343.48Z" fill="white"/>
<path d="M1035.1 345.908H882.309C874.953 345.908 867.899 342.984 862.697 337.779C857.496 332.574 854.574 325.514 854.574 318.153C854.574 310.791 857.496 303.732 862.697 298.526C867.899 293.321 874.953 290.397 882.309 290.397H1035.1C1035.71 290.443 1036.28 290.718 1036.7 291.168C1037.11 291.617 1037.34 292.206 1037.34 292.819C1037.34 293.431 1037.11 294.021 1036.7 294.47C1036.28 294.919 1035.71 295.194 1035.1 295.24H882.309C876.24 295.24 870.421 297.653 866.129 301.947C861.838 306.241 859.428 312.066 859.428 318.139C859.428 324.212 861.838 330.036 866.129 334.33C870.421 338.625 876.24 341.037 882.309 341.037H1035.1C1035.71 341.084 1036.28 341.359 1036.7 341.808C1037.11 342.257 1037.34 342.847 1037.34 343.459C1037.34 344.071 1037.11 344.661 1036.7 345.11C1036.28 345.559 1035.71 345.834 1035.1 345.881V345.908Z" fill="#64A9EF"/>
<path d="M1004.92 239.59V196.777C1005.52 196.777 1006.1 196.539 1006.52 196.115C1006.95 195.69 1007.19 195.115 1007.19 194.515C1007.19 193.915 1006.95 193.34 1006.52 192.916C1006.1 192.491 1005.52 192.253 1004.92 192.253H815.482C812.029 192.173 808.594 192.785 805.381 194.052C802.167 195.319 799.239 197.216 796.769 199.632C794.298 202.048 792.335 204.934 790.995 208.119C789.655 211.305 788.964 214.727 788.964 218.184C788.964 221.64 789.655 225.062 790.995 228.248C792.335 231.434 794.298 234.32 796.769 236.735C799.239 239.151 802.167 241.049 805.381 242.316C808.594 243.583 812.029 244.195 815.482 244.115H1004.92C1005.52 244.115 1006.1 243.876 1006.52 243.452C1006.95 243.028 1007.19 242.452 1007.19 241.853C1007.19 241.253 1006.95 240.677 1006.52 240.253C1006.1 239.829 1005.52 239.59 1004.92 239.59Z" fill="#8F6EA4"/>
<path d="M1039.65 241.852H925.936C922.782 241.929 919.644 241.373 916.708 240.218C913.772 239.063 911.096 237.331 908.838 235.126C906.581 232.921 904.786 230.286 903.561 227.376C902.336 224.466 901.705 221.341 901.705 218.183C901.705 215.026 902.336 211.901 903.561 208.991C904.786 206.081 906.581 203.446 908.838 201.241C911.096 199.035 913.772 197.304 916.708 196.149C919.644 194.994 922.782 194.438 925.936 194.515H1039.65C1035.67 194.515 1035.67 241.852 1039.65 241.852Z" fill="white"/>
<path d="M1044.07 244.115H925.963C922.51 244.195 919.076 243.583 915.862 242.316C912.649 241.049 909.721 239.151 907.25 236.735C904.78 234.32 902.817 231.434 901.476 228.248C900.136 225.062 899.446 221.64 899.446 218.184C899.446 214.727 900.136 211.305 901.476 208.119C902.817 204.934 904.78 202.048 907.25 199.632C909.721 197.216 912.649 195.319 915.862 194.052C919.076 192.785 922.51 192.173 925.963 192.253H1044.07C1044.67 192.253 1045.25 192.491 1045.67 192.916C1046.09 193.34 1046.33 193.915 1046.33 194.515C1046.33 195.115 1046.09 195.69 1045.67 196.115C1045.25 196.539 1044.67 196.777 1044.07 196.777H925.963C920.385 196.919 915.082 199.237 911.187 203.236C907.291 207.235 905.111 212.599 905.111 218.184C905.111 223.769 907.291 229.132 911.187 233.132C915.082 237.131 920.385 239.448 925.963 239.59H1044.07C1044.67 239.59 1045.25 239.829 1045.67 240.253C1046.09 240.677 1046.33 241.253 1046.33 241.853C1046.33 242.452 1046.09 243.028 1045.67 243.452C1045.25 243.876 1044.67 244.115 1044.07 244.115Z" fill="#C094DA"/>
<path d="M847.141 286.372V248.167C846.875 248.167 846.612 248.114 846.366 248.012C846.121 247.911 845.897 247.761 845.709 247.573C845.521 247.385 845.372 247.162 845.271 246.916C845.169 246.67 845.116 246.406 845.116 246.14C845.116 245.874 845.169 245.611 845.271 245.365C845.372 245.119 845.521 244.896 845.709 244.708C845.897 244.52 846.121 244.37 846.366 244.268C846.612 244.167 846.875 244.114 847.141 244.114H996.188C1002.33 244.114 1008.21 246.555 1012.55 250.898C1016.89 255.242 1019.33 261.133 1019.33 267.276C1019.33 273.419 1016.89 279.311 1012.55 283.654C1008.21 287.998 1002.33 290.439 996.188 290.439H847.141C846.875 290.439 846.612 290.386 846.366 290.284C846.121 290.182 845.897 290.033 845.709 289.845C845.521 289.657 845.372 289.434 845.271 289.188C845.169 288.942 845.116 288.678 845.116 288.412C845.116 288.146 845.169 287.883 845.271 287.637C845.372 287.391 845.521 287.168 845.709 286.98C845.897 286.792 846.121 286.642 846.366 286.54C846.612 286.439 846.875 286.386 847.141 286.386V286.372Z" fill="#64CC9C"/>
<path d="M794.029 288.413H917.657C923.258 288.413 928.63 286.186 932.591 282.222C936.552 278.258 938.777 272.882 938.777 267.277C938.777 261.671 936.552 256.295 932.591 252.331C928.63 248.367 923.258 246.141 917.657 246.141H794.029C797.579 246.127 797.579 288.413 794.029 288.413Z" fill="white"/>
<path d="M790.077 290.439H917.657C923.795 290.439 929.682 287.998 934.023 283.654C938.363 279.311 940.802 273.419 940.802 267.276C940.802 261.133 938.363 255.242 934.023 250.898C929.682 246.555 923.795 244.114 917.657 244.114H790.077C789.54 244.114 789.025 244.328 788.645 244.708C788.265 245.088 788.052 245.603 788.052 246.14C788.052 246.678 788.265 247.193 788.645 247.573C789.025 247.953 789.54 248.167 790.077 248.167H917.657C922.721 248.167 927.578 250.18 931.16 253.764C934.741 257.348 936.752 262.208 936.752 267.276C936.752 272.345 934.741 277.205 931.16 280.789C927.578 284.373 922.721 286.386 917.657 286.386H790.077C789.54 286.386 789.025 286.6 788.645 286.98C788.265 287.36 788.052 287.875 788.052 288.412C788.052 288.95 788.265 289.465 788.645 289.845C789.025 290.225 789.54 290.439 790.077 290.439Z" fill="#93DF97"/>
<path d="M946.349 190.129L943.367 190.421L940.122 190.671L938.763 192.267L943.423 192.253L946.279 191.545L946.349 190.129Z" fill="#FEB49D"/>
<path d="M1002 190.102L1000.7 190.462L998.13 190.879L996.576 192.253H1002.68L1002.72 190.671L1002 190.102Z" fill="#FEB49D"/>
<path d="M985.51 178.542C983.985 176.974 985.108 166.954 985.108 165.427C985.108 164.9 985.108 164.386 985.177 163.914C985.372 159.432 977.717 159.626 976.386 163.914C974.708 169.341 972.392 173.393 978.688 173.629H979.575C979.658 175.572 979.464 178.167 977.994 179.097C975.678 180.485 978.147 182.192 982.154 181.872C986.162 181.553 987.105 180.193 985.51 178.542Z" fill="#FEB49D"/>
<path d="M1003.43 182.191L1002.79 182.052L989.254 179.138H989.102L987.119 178.694C984.616 178.112 982.022 178.041 979.492 178.486L975.956 179.055C975.395 179.107 974.859 179.308 974.402 179.638L958.067 191.254L946.57 190.046C946.337 190.025 946.103 190.082 945.905 190.208C945.707 190.333 945.556 190.52 945.475 190.74C945.42 190.873 945.393 191.015 945.396 191.158C945.399 191.302 945.431 191.443 945.491 191.573C945.551 191.704 945.637 191.82 945.744 191.916C945.851 192.011 945.977 192.083 946.113 192.128L958.219 196.291C958.484 196.377 958.764 196.407 959.041 196.378C959.318 196.349 959.586 196.263 959.828 196.125L960.133 195.944L971.587 189.005C970.977 195.841 971.445 202.73 972.974 209.42H990.53C990.365 201.605 990.829 193.79 991.917 186.049L1000.17 186.84L1000.47 190.879C1000.49 191.12 1000.59 191.348 1000.75 191.526C1000.91 191.704 1001.13 191.821 1001.37 191.856C1001.61 191.892 1001.85 191.845 1002.06 191.722C1002.27 191.6 1002.43 191.41 1002.51 191.184L1004.91 184.911C1004.95 184.817 1004.97 184.719 1004.99 184.62C1005.05 184.357 1005.06 184.085 1005.02 183.819C1004.97 183.554 1004.87 183.3 1004.72 183.073C1004.58 182.847 1004.39 182.652 1004.17 182.501C1003.94 182.349 1003.69 182.244 1003.43 182.191Z" fill="#2F4858"/>
<path d="M984.761 171.256C983.86 171.741 981.558 172.061 980.601 170.59C980.601 170.59 977.342 165.344 975.637 161.777C974.25 158.891 976.344 156.018 980.504 159.432C983.652 162.013 987.66 159.904 987.757 162.957C987.854 166.01 985.33 170.159 984.761 171.256Z" fill="#2F4858"/>
<path d="M996.521 247.515L990.461 209.392H972.905L947.791 226.767C946.233 227.908 944.833 229.252 943.631 230.764C942.871 231.732 942.335 232.856 942.062 234.056C941.789 235.256 941.785 236.501 942.05 237.703C944.379 248.195 951.022 274.354 951.022 274.354L954.697 272.023C954.697 272.023 956.292 252.733 950.537 236.079L979.838 220.009L985.788 242.296C985.788 242.574 985.926 242.838 985.996 243.115C987.479 249.36 1003.02 287.039 1003.02 287.039L1007.39 286.775C1007.39 286.775 1002.28 263.127 996.521 247.515Z" fill="#64A9EF"/>
<path d="M951.05 274.327C949.625 276.628 947.82 278.669 945.711 280.363L946.168 281.751L957.04 274.812L954.725 271.898L951.05 274.327Z" fill="#223451"/>
<path d="M1003.12 286.733C1002.04 287.775 1000.72 288.541 999.281 288.968L998.892 290.439H1007.73L1007.38 286.733H1003.12Z" fill="#223451"/>
<path d="M979.436 109.193C980.421 103.005 979.906 96.6711 977.937 90.7232C975.967 84.7752 972.599 79.3873 968.117 75.0123C963.634 70.6373 958.168 67.4029 952.177 65.581C946.186 63.7591 939.846 63.4029 933.689 64.5424C927.532 65.6819 921.738 68.2837 916.795 72.1292C911.851 75.9747 907.902 80.9516 905.28 86.6415C902.657 92.3315 901.438 98.5683 901.724 104.828C902.01 111.087 903.793 117.187 906.924 122.613C910.974 129.517 912.781 137.508 912.096 145.484L911.722 149.467C911.445 152.461 912.315 155.448 914.155 157.823C915.996 160.199 918.671 161.786 921.637 162.262L940.552 165.288C943.515 165.761 946.548 165.09 949.035 163.41C951.522 161.73 953.278 159.167 953.948 156.239L954.877 152.201C956.715 144.449 960.923 137.463 966.914 132.217C973.617 126.218 978.041 118.084 979.436 109.193Z" fill="#C094DA"/>
<g style="mix-blend-mode:multiply" opacity="0.4">
<path d="M914.378 167.279L913.708 171.472C913.528 172.592 914.291 173.646 915.41 173.825L942.317 178.133C943.436 178.313 944.489 177.55 944.668 176.43L945.338 172.237C945.517 171.116 944.755 170.063 943.636 169.884L916.729 165.575C915.609 165.396 914.557 166.159 914.378 167.279Z" fill="#D9D9D9"/>
</g>
<path d="M954.392 121.864C951.785 121.448 950.98 118.659 950.232 116.202C949.483 113.746 948.914 112.039 947.527 111.803C946.141 111.567 945.059 112.983 943.589 115.148C942.119 117.313 940.524 119.644 937.903 119.228C935.283 118.811 934.492 116.022 933.743 113.566C932.994 111.109 932.44 109.402 931.053 109.166C929.666 108.93 928.585 110.346 927.115 112.511C925.645 114.676 924.078 117.063 921.512 116.591C918.947 116.119 918.101 113.399 917.352 110.943C916.603 108.486 916.048 106.779 914.662 106.543C914.539 106.534 914.42 106.499 914.312 106.442C914.204 106.384 914.109 106.305 914.033 106.208C913.957 106.112 913.902 106.001 913.871 105.882C913.84 105.764 913.833 105.64 913.853 105.518C913.872 105.397 913.916 105.281 913.982 105.178C914.048 105.075 914.135 104.986 914.237 104.918C914.339 104.85 914.454 104.804 914.575 104.783C914.696 104.762 914.82 104.766 914.939 104.795C917.546 105.211 918.35 107.987 919.099 110.443C919.848 112.899 920.403 114.606 921.873 114.842C923.343 115.078 924.327 113.677 925.797 111.512C927.267 109.347 928.876 107.001 931.483 107.348C934.09 107.695 934.894 110.554 935.643 113.01C936.392 115.467 936.947 117.174 938.417 117.41C939.887 117.646 940.871 116.23 942.341 114.079C943.811 111.928 945.42 109.569 948.027 109.985C950.634 110.401 951.438 113.191 952.187 115.647C952.936 118.104 953.49 119.811 954.891 120.046C956.292 120.282 957.359 118.867 958.829 116.702C960.299 114.537 961.894 112.205 964.515 112.622C964.746 112.659 964.954 112.787 965.091 112.977C965.229 113.167 965.286 113.403 965.25 113.635C965.209 113.868 965.079 114.075 964.887 114.212C964.695 114.35 964.457 114.407 964.224 114.37C962.837 114.148 961.769 115.55 960.286 117.701C958.802 119.852 956.999 122.281 954.392 121.864Z" fill="white"/>
<path d="M886.954 79.1759H874.931V67.8932C874.931 65.3535 877.4 63.8408 881.435 63.8408C885.471 63.8408 886.982 66.089 886.982 69.1005L886.954 79.1759Z" fill="#223451"/>
<path d="M922.802 85.9206C922.745 85.6528 922.585 85.4181 922.357 85.2675C922.128 85.1168 921.85 85.0623 921.582 85.1157L904.663 88.6129L889.409 83.0618L889.104 82.9646H888.743H888.633H888.425L881.657 81.9932L875.93 82.9785C875.757 82.9974 875.585 83.0299 875.417 83.0756C875.314 83.0969 875.212 83.1247 875.112 83.1589L859.858 88.71L842.87 85.1434C842.628 85.1124 842.382 85.1677 842.176 85.2998C841.971 85.4319 841.818 85.6323 841.745 85.8658C841.672 86.0993 841.684 86.351 841.778 86.5767C841.872 86.8024 842.043 86.9878 842.26 87.1002L859.317 93.5951C859.684 93.7361 860.086 93.7603 860.468 93.6644L860.759 93.5812L872.116 90.6946C872.116 92.5542 872.338 99.9372 873.711 112.15H889.922C889.617 106.835 887.606 98.1054 891.143 90.3893L903.623 93.6228L903.914 93.7061C904.296 93.8076 904.699 93.7833 905.065 93.6367L922.122 87.1419C922.369 87.0617 922.576 86.8913 922.702 86.6648C922.828 86.4383 922.864 86.1724 922.802 85.9206Z" fill="#93DF97"/>
<path d="M842.634 85.2686L839.764 85.5461L836.63 85.7959L835.895 87.3364L839.611 87.5723L842.579 86.6286L842.634 85.2686Z" fill="#FEB49D"/>
<path d="M921.803 85.2685L924.688 84.7134L927.808 84.9632L928.543 86.5036L924.84 86.7395L921.873 86.6285L921.803 85.2685Z" fill="#FEB49D"/>
<path d="M884.611 82.3681C883.696 81.1885 884.084 76.2896 884.472 72.5426C884.65 71.599 884.757 70.6434 884.791 69.6838C884.791 69.1703 884.791 68.6984 884.791 68.296C884.971 63.9661 877.012 64.0216 876.318 68.296C875.458 73.5279 875.223 77.2888 878.537 77.6219C878.998 77.6768 879.463 77.6768 879.924 77.6219C879.924 79.5093 879.84 81.9934 878.689 82.8816C876.901 84.2694 878.814 85.8653 881.976 85.5461C885.138 85.227 885.845 83.9779 884.611 82.3681Z" fill="#FEB49D"/>
<path d="M895.941 148.871L889.922 112.122H873.711L869.426 144.915C869.291 146.3 869.291 147.694 869.426 149.079C869.426 149.218 869.426 149.384 869.426 149.565C869.426 149.745 869.426 149.703 869.426 149.759C870.3 157.281 874.113 188.617 874.113 188.617H878.273C878.273 188.617 880.589 165.399 877.525 150.217L881.921 127.18L885.609 143.736C885.734 144.319 885.901 144.888 886.081 145.457C887.468 151.466 897.924 188.617 897.924 188.617H902.084C902.084 188.617 901.363 163.97 895.941 148.871Z" fill="#2F4858"/>
<path d="M874.155 188.686C871.808 189.821 869.285 190.548 866.694 190.837L866.306 192.225H878.787L878.315 188.686H874.155Z" fill="#64A9EF"/>
<path d="M897.882 188.686C896.844 189.69 895.578 190.428 894.193 190.838L893.819 192.225H902.32L902.001 188.659L897.882 188.686Z" fill="#64A9EF"/>
<path d="M876.374 66.9635C876.374 66.9635 878.093 71.5155 884.417 70.5718L885.803 69.7113V68.8509C885.805 67.8333 885.416 66.8541 884.716 66.1155C884.017 65.3768 883.061 64.9352 882.045 64.8818H880.922L877.857 65.659L876.374 66.9635Z" fill="#223451"/>
<path d="M883.765 70.5997C883.307 71.7099 882.766 72.6953 883.931 72.8895C885.096 73.0838 885.873 71.7793 885.859 70.794C885.859 69.5727 884.139 69.6976 883.765 70.5997Z" fill="#FEB49D"/>
<path d="M977.55 166.454C977.55 167.675 977.44 168.771 978.604 168.494C979.769 168.216 979.991 166.731 979.561 165.815C979.131 164.9 977.55 165.482 977.55 166.454Z" fill="#FEB49D"/>
<g style="mix-blend-mode:multiply" opacity="0.4">
<path d="M1051.45 352.986H756.85C755.909 352.986 755.006 352.612 754.34 351.946C753.674 351.279 753.3 350.376 753.3 349.433C753.304 348.494 753.68 347.593 754.345 346.93C755.01 346.267 755.911 345.895 756.85 345.895H1051.45C1052.39 345.895 1053.29 346.267 1053.96 346.93C1054.62 347.593 1055 348.494 1055 349.433C1055 350.376 1054.63 351.279 1053.96 351.946C1053.29 352.612 1052.39 352.986 1051.45 352.986Z" fill="#D9D9D9"/>
</g>
</g>
</svg>
