<svg width="54" height="29" viewBox="0 0 54 29" fill="none" xmlns="http://www.w3.org/2000/svg">
<path d="M0.0705166 11L21 11.097L20.9336 25.8827L20.9171 29L17.7357 25.8666L0 25.7898L0.0705166 11Z" fill="#31B8A0"/>
<path d="M8.90118 19.0414C8.89954 19.3502 8.99193 19.6526 9.16667 19.9102C9.3414 20.1678 9.59063 20.3691 9.88279 20.4886C10.1749 20.6081 10.4969 20.6404 10.8079 20.5814C11.1189 20.5224 11.405 20.3749 11.6299 20.1573C11.8548 19.9398 12.0084 19.6621 12.0713 19.3594C12.1342 19.0567 12.1036 18.7427 11.9833 18.4569C11.863 18.1712 11.6585 17.9267 11.3956 17.7544C11.1326 17.5821 10.8232 17.4897 10.5064 17.4888C10.2961 17.4872 10.0877 17.5262 9.89301 17.6035C9.69834 17.6808 9.52128 17.7949 9.37206 17.9393C9.22285 18.0836 9.10441 18.2553 9.02359 18.4445C8.94277 18.6336 8.90117 18.8365 8.90118 19.0414Z" fill="white"/>
<path d="M3.65004 19.0134C3.6484 19.3222 3.74078 19.6246 3.91552 19.8822C4.09026 20.1398 4.33949 20.3411 4.63165 20.4606C4.92381 20.5801 5.24576 20.6124 5.55676 20.5534C5.86776 20.4944 6.15381 20.3468 6.37871 20.1293C6.60361 19.9117 6.75725 19.6341 6.82016 19.3314C6.88308 19.0287 6.85245 18.7146 6.73215 18.4289C6.61186 18.1432 6.40732 17.8987 6.1444 17.7264C5.88148 17.554 5.57203 17.4616 5.2552 17.4608C5.04515 17.4597 4.83694 17.4991 4.64251 17.5766C4.44808 17.6541 4.27126 17.7682 4.12215 17.9124C3.97304 18.0567 3.85458 18.2281 3.77356 18.4171C3.69255 18.606 3.65058 18.8086 3.65004 19.0134Z" fill="white"/>
<path d="M14.0318 19.0414C14.031 19.3492 14.1238 19.6504 14.2986 19.9069C14.4734 20.1633 14.7222 20.3634 15.0137 20.482C15.3052 20.6005 15.6262 20.6322 15.9361 20.5729C16.246 20.5136 16.531 20.3661 16.7549 20.149C16.9788 19.9318 17.1316 19.6549 17.194 19.3531C17.2564 19.0513 17.2257 18.7382 17.1056 18.4535C16.9855 18.1687 16.7814 17.9251 16.5193 17.7534C16.2571 17.5817 15.9486 17.4896 15.6328 17.4888C15.4229 17.4878 15.2149 17.5271 15.0207 17.6047C14.8265 17.6822 14.65 17.7964 14.5012 17.9407C14.3524 18.085 14.2344 18.2565 14.1538 18.4454C14.0732 18.6343 14.0318 18.8368 14.0318 19.0414Z" fill="white"/>
<path d="M53.9079 0L26 0.130929L26.0921 20.6719L26.1105 25L30.3542 20.6531L54 20.5409L53.9079 0Z" fill="#7681A9"/>
<path d="M41.9215 11.1035C41.9228 11.5433 41.8112 11.9737 41.6009 12.3402C41.3905 12.7066 41.0909 12.9927 40.7399 13.162C40.3889 13.3314 40.0023 13.3765 39.6291 13.2916C39.256 13.2067 38.9129 12.9957 38.6435 12.6852C38.3741 12.3748 38.1905 11.9788 38.1158 11.5475C38.0411 11.1163 38.0788 10.669 38.224 10.2625C38.3692 9.85604 38.6155 9.50852 38.9317 9.264C39.2478 9.01948 39.6196 8.88895 39.9999 8.88895C40.5084 8.88894 40.9962 9.12202 41.3563 9.53711C41.7165 9.95219 41.9197 10.5155 41.9215 11.1035Z" fill="white"/>
<path d="M49.0588 11.1035C49.0603 11.5433 48.9328 11.9737 48.6924 12.3402C48.452 12.7066 48.1096 12.9927 47.7084 13.162C47.3073 13.3314 46.8655 13.3765 46.439 13.2916C46.0125 13.2067 45.6205 12.9957 45.3126 12.6852C45.0047 12.3748 44.7948 11.9788 44.7094 11.5475C44.6241 11.1163 44.6671 10.6691 44.8331 10.2625C44.9991 9.85604 45.2806 9.50852 45.6419 9.264C46.0032 9.01948 46.4281 8.88895 46.8627 8.88895C47.1506 8.88845 47.4358 8.94533 47.702 9.05634C47.9682 9.16736 48.2101 9.33034 48.414 9.53598C48.618 9.74162 48.7799 9.98589 48.8905 10.2548C49.0011 10.5238 49.0583 10.8122 49.0588 11.1035Z" fill="white"/>
<path d="M35.3334 11.1035C35.3349 11.5432 35.2075 11.9734 34.9673 12.3398C34.727 12.7061 34.3848 12.9922 33.9839 13.1617C33.583 13.3311 33.1414 13.3765 32.715 13.2919C32.2886 13.2073 31.8966 12.9967 31.5885 12.6866C31.2805 12.3765 31.0703 11.9809 30.9845 11.5499C30.8987 11.1189 30.9412 10.6718 31.1066 10.2652C31.272 9.85864 31.5529 9.51086 31.9137 9.26588C32.2745 9.02089 32.699 8.88972 33.1336 8.88896C33.4218 8.88795 33.7073 8.94446 33.974 9.05525C34.2406 9.16604 34.483 9.32894 34.6873 9.53463C34.8916 9.74032 35.0539 9.98476 35.1647 10.254C35.2756 10.5232 35.3329 10.8119 35.3334 11.1035Z" fill="white"/>
</svg>
