<svg width="812" height="341" viewBox="0 0 812 341" fill="none" xmlns="http://www.w3.org/2000/svg">
<mask id="mask0" mask-type="alpha" maskUnits="userSpaceOnUse" x="0" y="0" width="812" height="341">
<rect width="812" height="341" fill="#F7F7F8"/>
</mask>
<g mask="url(#mask0)">
<path opacity="0.6" d="M557.869 -32.019C514.349 82.6307 476.968 53.155 390.848 113.31C310.18 169.609 324.482 241.832 263.173 304.331C205.744 362.84 91.389 344.782 68.8495 447.634C39.2264 582.797 163.599 549.283 253.45 543.316C370.531 535.545 488.655 531.114 605.035 515.645C655.172 508.979 750.879 512.085 788.507 480.719C837.883 439.568 805.546 397.435 790.299 326.797C769.429 230.279 778.452 16.9394 723.503 -60.1689C686.404 -112.221 585.675 -105.248 557.869 -32.019Z" fill="#F0F2FA"/>
<path d="M660.298 91.2487C572.166 176.509 550.854 133.934 447.302 151.747C350.318 168.406 332.591 239.855 250.523 270.362C173.697 298.917 77.8791 233.95 13.7469 317.454C-70.5431 427.206 56.2971 449.733 140.194 482.548C249.455 525.295 358.273 571.515 470.197 606.994C518.395 622.266 603.704 665.774 651.091 653.387C713.283 637.133 701.928 585.253 718.169 514.835C740.353 418.625 839.19 229.346 822.237 136.193C810.746 73.3005 716.61 36.7781 660.298 91.2487Z" fill="#E1F6E8"/>
<mask id="path-4-inside-1" fill="white">
<path d="M680.689 694.267C643.467 694.267 593.932 674.76 552.855 658.58C536.478 652.123 521.009 646.033 508.181 641.908C417.175 612.629 326.784 576.094 239.326 540.775C212.736 530.021 185.224 518.911 158.167 508.181C146.099 503.406 133.467 498.912 120.11 494.174C65.2465 474.679 8.5171 454.533 -3.14552 414.745C-9.92212 391.665 -0.862103 364.51 24.5379 331.732C43.4436 307.339 66.6706 292.84 95.5448 287.402C121.325 282.552 149.058 285.192 175.919 287.733C209.826 290.95 244.875 294.264 276.414 282.7C314.716 268.643 340.251 245.87 364.804 223.859C395.937 196.04 428.138 167.289 485.997 157.566C521.82 151.575 548.005 152.312 571.097 152.962C618.018 154.276 649.016 155.135 712.362 94.3792C739.972 68.0462 779.06 59.6246 817.031 72.0115C833.75 77.3807 848.936 86.6851 861.312 99.1424C873.748 111.849 881.826 127.035 884.638 143.08C896.202 208.243 854.45 317.184 817.608 413.297C798.703 463.004 780.656 509.998 772.419 544.937C768.196 562.873 765.63 579.998 763.359 595.111C755.993 643.86 750.751 679.082 700.307 692.033C693.887 693.596 687.296 694.347 680.689 694.267ZM128.409 285.339C90.8429 285.339 54.6029 293.933 25.0535 332.1C-0.186897 364.731 -9.19781 391.69 -2.49487 414.561C9.06954 454.03 65.6394 474.126 120.355 493.56C133.725 498.299 146.357 502.792 158.412 507.58C185.421 518.309 212.981 529.419 239.584 540.161C326.993 575.481 417.372 612.015 508.352 641.282C521.206 645.42 536.674 651.521 553.063 657.966C601.813 677.166 662.471 701.069 700.11 691.407C750.149 678.554 755.354 643.529 762.72 595.025C764.991 579.888 767.557 562.75 771.78 544.79C780.03 509.765 798.027 462.795 817.093 413.063C853.922 317.025 895.662 208.182 884.085 143.19C878.524 111.849 852.167 84.1529 816.823 72.6376C779.097 60.3612 740.242 68.6477 712.878 94.8825L712.657 94.6492L712.878 94.8825C649.323 155.823 618.239 154.951 571.146 153.638C548.079 152.987 521.918 152.25 486.169 158.241C428.47 167.903 397.779 195.316 365.307 224.35C340.619 246.447 315.084 269.208 276.659 283.277C244.986 294.89 209.863 291.563 175.882 288.347C160.094 286.886 144.147 285.339 128.409 285.339Z"/>
</mask>
<path d="M680.689 694.267L680.725 691.268L680.707 691.267H680.689V694.267ZM552.855 658.58L551.754 661.371L551.755 661.371L552.855 658.58ZM508.181 641.908L507.262 644.764L507.262 644.764L508.181 641.908ZM239.326 540.775L238.202 543.556L238.203 543.557L239.326 540.775ZM158.167 508.181L159.273 505.392L159.271 505.392L158.167 508.181ZM120.11 494.174L119.105 497.001L119.107 497.001L120.11 494.174ZM-3.14552 414.745L-0.266646 413.901L-0.267033 413.9L-3.14552 414.745ZM24.5379 331.732L22.1667 329.894L22.1665 329.894L24.5379 331.732ZM95.5448 287.402L94.9902 284.453L94.9895 284.453L95.5448 287.402ZM175.919 287.733L176.202 284.747L176.201 284.746L175.919 287.733ZM276.414 282.7L277.446 285.516L277.447 285.516L276.414 282.7ZM364.804 223.859L362.805 221.622L362.801 221.625L364.804 223.859ZM485.997 157.566L485.502 154.607L485.5 154.607L485.997 157.566ZM571.097 152.962L571.013 155.961L571.013 155.961L571.097 152.962ZM712.362 94.3792L710.292 92.2082L710.286 92.214L712.362 94.3792ZM817.031 72.0115L816.101 74.8636L816.114 74.8678L817.031 72.0115ZM861.312 99.1424L863.456 97.044L863.449 97.036L863.441 97.0281L861.312 99.1424ZM884.638 143.08L881.683 143.598L881.684 143.604L884.638 143.08ZM817.608 413.297L814.807 412.223L814.804 412.23L817.608 413.297ZM772.419 544.937L769.499 544.248L769.499 544.249L772.419 544.937ZM763.359 595.111L766.325 595.559L766.325 595.557L763.359 595.111ZM700.307 692.033L701.016 694.948L701.035 694.944L701.053 694.939L700.307 692.033ZM25.0535 332.1L22.6813 330.264L22.6805 330.265L25.0535 332.1ZM-2.49487 414.561L0.384096 413.718L0.384039 413.717L-2.49487 414.561ZM120.355 493.56L119.351 496.387L119.353 496.388L120.355 493.56ZM158.412 507.58L159.52 504.792L159.52 504.791L158.412 507.58ZM239.584 540.161L240.708 537.38L240.708 537.38L239.584 540.161ZM508.352 641.282L509.272 638.427L509.271 638.426L508.352 641.282ZM553.063 657.966L554.163 655.175L554.161 655.174L553.063 657.966ZM700.11 691.407L700.856 694.313L700.857 694.313L700.11 691.407ZM762.72 595.025L765.686 595.475L765.687 595.47L762.72 595.025ZM771.78 544.79L768.86 544.102L768.86 544.103L771.78 544.79ZM817.093 413.063L814.292 411.989L814.291 411.989L817.093 413.063ZM884.085 143.19L881.131 143.714L881.132 143.716L884.085 143.19ZM816.823 72.6376L817.752 69.7852L817.751 69.7848L816.823 72.6376ZM712.878 94.8825L710.7 96.946L712.776 99.1363L714.954 97.048L712.878 94.8825ZM712.878 94.8825L714.954 97.0479L717.107 94.9838L715.056 92.819L712.878 94.8825ZM571.146 153.638L571.062 156.636L571.063 156.636L571.146 153.638ZM486.169 158.241L486.664 161.2L486.665 161.2L486.169 158.241ZM365.307 224.35L363.308 222.113L363.307 222.115L365.307 224.35ZM276.659 283.277L275.628 280.46L275.626 280.46L276.659 283.277ZM175.882 288.347L176.165 285.36L176.158 285.36L175.882 288.347ZM680.689 691.267C662.534 691.267 641.188 686.498 619.109 679.627C597.061 672.766 574.511 663.886 553.954 655.789L551.755 661.371C572.275 669.454 595.031 678.418 617.326 685.356C639.589 692.284 661.622 697.267 680.689 697.267V691.267ZM553.955 655.789C537.607 649.343 522.039 643.213 509.099 639.052L507.262 644.764C519.98 648.853 535.349 654.902 551.754 661.371L553.955 655.789ZM509.099 639.053C418.216 609.812 327.926 573.32 240.45 537.993L238.203 543.557C325.642 578.869 416.135 615.446 507.262 644.764L509.099 639.053ZM240.451 537.994C213.861 527.24 186.341 516.126 159.273 505.392L157.061 510.97C184.108 521.695 211.611 532.802 238.202 543.556L240.451 537.994ZM159.271 505.392C147.145 500.593 134.462 496.082 121.113 491.346L119.107 497.001C132.472 501.743 145.054 506.218 157.063 510.971L159.271 505.392ZM121.114 491.347C93.6198 481.577 65.9739 471.748 43.7342 459.444C21.4478 447.115 5.22504 432.637 -0.266646 413.901L-6.02439 415.589C0.14654 436.642 18.1198 452.13 40.8296 464.694C63.5861 477.284 91.7367 487.275 119.105 497.001L121.114 491.347ZM-0.267033 413.9C-6.62451 392.248 1.67939 366.128 26.9092 333.569L22.1665 329.894C-3.40359 362.892 -13.2197 391.083 -6.02401 415.59L-0.267033 413.9ZM26.9091 333.57C45.3901 309.724 67.9851 295.645 96.1001 290.35L94.9895 284.453C65.3562 290.035 41.497 304.953 22.1667 329.894L26.9091 333.57ZM96.0994 290.35C121.389 285.593 148.684 288.17 175.636 290.72L176.201 284.746C149.432 282.214 121.262 279.512 94.9902 284.453L96.0994 290.35ZM175.635 290.72C209.397 293.922 245.157 297.356 277.446 285.516L275.381 279.883C244.594 291.172 210.256 287.977 176.202 284.747L175.635 290.72ZM277.447 285.516C316.349 271.24 342.265 248.094 366.807 226.093L362.801 221.625C338.237 243.647 313.083 266.047 275.38 279.883L277.447 285.516ZM366.803 226.096C397.906 198.304 429.551 170.094 486.494 160.525L485.5 154.607C426.725 164.484 393.968 193.777 362.805 221.622L366.803 226.096ZM486.492 160.525C522.012 154.585 547.954 155.311 571.013 155.961L571.182 149.964C548.057 149.312 521.628 148.566 485.502 154.607L486.492 160.525ZM571.013 155.961C594.413 156.616 614.413 157.201 636.523 149.791C658.644 142.379 682.604 127.077 714.439 96.5443L710.286 92.214C678.774 122.437 655.562 137.084 634.617 144.102C613.662 151.124 594.702 150.622 571.181 149.964L571.013 155.961ZM714.433 96.5501C741.203 71.0179 779.125 62.8012 816.101 74.8636L817.962 69.1594C778.996 56.448 738.741 65.0745 710.292 92.2082L714.433 96.5501ZM816.114 74.8678C832.376 80.0902 847.146 89.1401 859.184 101.257L863.441 97.0281C850.726 84.23 835.125 74.6713 817.949 69.1552L816.114 74.8678ZM859.168 101.241C871.223 113.558 878.986 128.206 881.683 143.598L887.593 142.562C884.667 125.863 876.274 110.14 863.456 97.044L859.168 101.241ZM881.684 143.604C887.337 175.457 879.976 218.406 866.392 265.755C852.836 313.001 833.239 364.139 814.807 412.223L820.41 414.37C838.82 366.342 858.519 314.953 872.159 267.41C885.77 219.969 893.503 175.866 887.592 142.556L881.684 143.604ZM814.804 412.23C795.932 461.849 777.793 509.069 769.499 544.248L775.339 545.625C783.519 510.928 801.473 464.159 820.412 414.363L814.804 412.23ZM769.499 544.249C765.243 562.322 762.661 579.565 760.392 594.665L766.325 595.557C768.598 580.432 771.148 563.423 775.339 545.624L769.499 544.249ZM760.392 594.662C756.686 619.194 753.584 639.633 745.322 655.619C737.217 671.301 724.041 682.842 699.561 689.127L701.053 694.939C727.016 688.273 741.683 675.727 750.652 658.374C759.464 641.323 762.666 619.777 766.325 595.559L760.392 594.662ZM699.597 689.118C693.421 690.622 687.081 691.344 680.725 691.268L680.653 697.267C687.511 697.349 694.352 696.57 701.016 694.948L699.597 689.118ZM128.409 282.339C90.292 282.339 52.9956 291.108 22.6813 330.264L27.4256 333.937C56.2101 296.757 91.3938 288.339 128.409 288.339V282.339ZM22.6805 330.265C-2.72647 363.111 -12.4953 391.106 -5.37378 415.405L0.384039 413.717C-5.90032 392.275 2.35267 366.351 27.4264 333.936L22.6805 330.265ZM-5.37383 415.405C0.748987 436.301 18.6625 451.698 41.298 464.2C63.9831 476.729 92.0558 486.692 119.351 496.387L121.36 490.733C93.9391 480.994 66.3688 471.192 44.1988 458.948C21.9793 446.676 5.82568 432.289 0.384096 413.718L-5.37383 415.405ZM119.353 496.388C132.73 501.129 145.31 505.604 157.305 510.368L159.52 504.791C147.404 499.98 134.719 495.468 121.358 490.732L119.353 496.388ZM157.305 510.368C184.304 521.094 211.858 532.201 238.461 542.943L240.708 537.38C214.104 526.638 186.537 515.525 159.52 504.792L157.305 510.368ZM238.46 542.943C325.851 578.255 416.331 614.832 507.434 644.138L509.271 638.426C418.412 609.199 328.134 572.706 240.708 537.38L238.46 542.943ZM507.433 644.138C520.176 648.24 535.544 654.3 551.965 660.758L554.161 655.174C537.805 648.742 522.236 642.599 509.272 638.427L507.433 644.138ZM551.964 660.757C576.308 670.345 603.811 681.184 629.955 688.402C655.997 695.591 681.227 699.352 700.856 694.313L699.365 688.501C681.355 693.124 657.436 689.764 631.552 682.618C605.769 675.5 578.568 664.787 554.163 655.175L551.964 660.757ZM700.857 694.313C726.62 687.695 741.176 675.221 750.084 657.961C758.834 641.004 762.027 619.57 765.686 595.475L759.754 594.574C756.047 618.984 752.955 639.314 744.752 655.209C736.706 670.8 723.639 682.266 699.364 688.501L700.857 694.313ZM765.687 595.47C767.96 580.321 770.51 563.3 774.701 545.476L768.86 544.103C764.605 562.2 762.023 579.455 759.754 594.58L765.687 595.47ZM774.7 545.477C782.893 510.696 800.798 463.948 819.894 414.137L814.291 411.989C795.256 461.642 777.167 508.833 768.86 544.102L774.7 545.477ZM819.894 414.137C838.298 366.146 857.991 314.8 871.625 267.312C885.229 219.928 892.957 175.89 887.039 142.664L881.132 143.716C886.79 175.482 879.436 218.362 865.858 265.656C852.309 312.847 832.717 363.942 814.292 411.989L819.894 414.137ZM887.039 142.666C881.249 110.033 853.939 81.5752 817.752 69.7852L815.893 75.49C850.394 86.7306 875.799 113.664 881.131 143.714L887.039 142.666ZM817.751 69.7848C779.038 57.187 739.012 65.6715 710.802 92.717L714.954 97.048C741.473 71.624 779.157 63.5354 815.894 75.4904L817.751 69.7848ZM715.056 92.819L714.835 92.5857L710.479 96.7128L710.7 96.946L715.056 92.819ZM710.479 96.7128L710.7 96.946L715.056 92.819L714.835 92.5857L710.479 96.7128ZM710.802 92.7171C679.185 123.033 655.9 137.722 634.886 144.761C613.862 151.803 594.838 151.297 571.23 150.639L571.063 156.636C594.548 157.291 614.612 157.879 636.792 150.45C658.981 143.018 683.015 127.673 714.954 97.0479L710.802 92.7171ZM571.231 150.639C548.13 149.987 521.725 149.241 485.673 155.282L486.665 161.2C522.11 155.26 548.028 155.987 571.062 156.636L571.231 150.639ZM485.673 155.282C427.062 165.097 395.817 193.046 363.308 222.113L367.307 226.586C399.74 197.586 429.877 170.709 486.664 161.2L485.673 155.282ZM363.307 222.115C338.607 244.223 313.453 266.611 275.628 280.46L277.691 286.094C316.716 271.805 342.632 248.672 367.308 226.585L363.307 222.115ZM275.626 280.46C244.704 291.798 210.292 288.591 176.165 285.36L175.599 291.334C209.434 294.536 245.267 297.982 277.692 286.093L275.626 280.46ZM176.158 285.36C160.409 283.902 144.314 282.339 128.409 282.339V288.339C143.981 288.339 159.78 289.87 175.605 291.334L176.158 285.36Z" fill="white" mask="url(#path-4-inside-1)"/>
<path d="M793.494 198.631C793.494 198.631 780.665 195.342 768.066 208.467C754.235 222.914 736.333 212.891 723.797 219.853C714.089 225.216 695.392 232.771 690.085 212.328C683.119 185.577 702.318 174.53 727.208 183.486C745.689 190.144 747.459 177.257 762.23 176.94C777.002 176.623 788.423 184.171 793.494 198.631Z" fill="#93DF97"/>
<path d="M675.137 200.549C675.09 200.624 675.067 200.711 675.073 200.8C675.078 200.888 675.111 200.972 675.167 201.041C688.726 219.168 707.129 215.027 716.886 210.957C722.525 208.615 728.695 208.922 735.249 209.288C744.654 209.803 754.416 210.335 764.449 203.339C768.537 200.312 773.305 198.336 778.336 197.581C783.367 196.827 788.508 197.318 793.306 199.012C793.358 199.038 793.414 199.053 793.472 199.057C793.53 199.061 793.588 199.052 793.642 199.033C793.697 199.013 793.747 198.982 793.789 198.942C793.831 198.902 793.864 198.854 793.887 198.801C793.91 198.75 793.922 198.694 793.923 198.638C793.924 198.582 793.914 198.526 793.894 198.473C793.873 198.421 793.842 198.373 793.802 198.333C793.763 198.293 793.716 198.261 793.664 198.239C788.73 196.476 783.438 195.954 778.256 196.719C773.074 197.485 768.161 199.515 763.952 202.629C754.108 209.535 744.572 208.937 735.296 208.424C728.651 208.079 722.375 207.731 716.547 210.164C707.028 214.148 689.066 218.174 675.858 200.532C675.789 200.437 675.685 200.372 675.569 200.353C675.453 200.334 675.334 200.361 675.239 200.429L675.137 200.549Z" fill="#64CC9C"/>
<path d="M774.039 182.631C773.965 182.686 773.915 182.766 773.896 182.856C773.896 182.856 774.744 191.277 764.732 202.019C764.654 202.106 764.614 202.219 764.619 202.336C764.624 202.452 764.674 202.562 764.759 202.641C764.801 202.679 764.85 202.708 764.903 202.726C764.956 202.745 765.013 202.752 765.069 202.749C765.125 202.745 765.18 202.73 765.23 202.705C765.281 202.68 765.326 202.645 765.362 202.602C775.698 191.514 774.808 183.118 774.763 182.774C774.736 182.661 774.666 182.563 774.568 182.501C774.47 182.438 774.351 182.417 774.237 182.441C774.151 182.479 774.08 182.546 774.039 182.631V182.631Z" fill="#64CC9C"/>
<path d="M754.587 183.611L754.492 183.761C752.46 193.724 746.843 202.594 738.704 208.69C738.658 208.723 738.619 208.765 738.59 208.813C738.56 208.861 738.54 208.915 738.532 208.971C738.523 209.027 738.526 209.084 738.54 209.139C738.555 209.193 738.579 209.245 738.614 209.29C738.644 209.339 738.685 209.38 738.733 209.412C738.782 209.443 738.836 209.464 738.893 209.473C738.95 209.482 739.008 209.478 739.064 209.462C739.119 209.446 739.17 209.418 739.214 209.381C747.542 203.153 753.288 194.08 755.358 183.889C755.368 183.831 755.367 183.773 755.354 183.716C755.341 183.66 755.316 183.606 755.281 183.56C755.247 183.513 755.203 183.474 755.152 183.445C755.102 183.416 755.046 183.398 754.988 183.392C754.908 183.388 754.828 183.407 754.757 183.446C754.686 183.484 754.628 183.541 754.587 183.611V183.611Z" fill="#64CC9C"/>
<path d="M717.992 184.666C717.931 184.766 717.911 184.886 717.938 185C717.98 185.184 721.684 202.799 713.158 211.487C713.116 211.528 713.083 211.576 713.061 211.63C713.038 211.684 713.026 211.742 713.026 211.8C713.026 211.858 713.037 211.916 713.059 211.97C713.081 212.024 713.113 212.074 713.154 212.115C713.241 212.193 713.355 212.234 713.471 212.229C713.587 212.224 713.697 212.173 713.776 212.088C722.61 203.123 718.95 185.562 718.785 184.827C718.758 184.714 718.688 184.615 718.59 184.553C718.491 184.491 718.373 184.47 718.259 184.494C718.152 184.516 718.057 184.578 717.992 184.666V184.666Z" fill="#64CC9C"/>
<path d="M754.638 207.243C754.598 207.313 754.578 207.393 754.581 207.474C754.583 207.554 754.607 207.633 754.65 207.701C754.694 207.769 754.755 207.824 754.827 207.86C754.899 207.896 754.98 207.911 755.061 207.905C761.828 207.145 764.034 210.223 764.034 210.223C764.067 210.27 764.108 210.309 764.157 210.338C764.205 210.368 764.259 210.388 764.315 210.396C764.37 210.404 764.428 210.402 764.482 210.388C764.537 210.374 764.589 210.349 764.634 210.314C764.729 210.249 764.795 210.149 764.817 210.036C764.84 209.922 764.817 209.805 764.755 209.708C764.605 209.613 762.245 206.279 754.931 207.113C754.82 207.116 754.715 207.163 754.638 207.243V207.243Z" fill="#64CC9C"/>
<path d="M744.959 122.98C744.959 122.98 736.051 140.992 708.475 142.424C678.185 144.03 671.984 174.505 651.56 182.044C635.816 187.842 608.584 201.897 626.856 228.238C650.751 262.687 682.46 251.572 696.765 214.114C707.405 186.267 723.987 197.004 738.936 180.374C754.312 163.279 756.568 143.105 744.959 122.98Z" fill="#64A9EF"/>
<path d="M630.561 219.73C624.776 228.865 621.654 240.896 625.108 256.539C625.153 256.706 625.259 256.85 625.405 256.943C625.551 257.035 625.727 257.07 625.897 257.039C625.982 257.022 626.063 256.988 626.135 256.938C626.207 256.889 626.268 256.826 626.315 256.752C626.362 256.678 626.393 256.596 626.407 256.51C626.421 256.424 626.417 256.336 626.396 256.251C619.177 223.585 641.566 206.963 655.574 199.96C664.137 195.659 669.996 188.068 676.043 180.098C684.627 168.951 693.541 157.408 711.072 152.9C738.465 145.859 745.536 123.398 745.535 123.109C745.581 122.94 745.559 122.76 745.473 122.608C745.388 122.455 745.246 122.343 745.078 122.294C744.994 122.268 744.906 122.259 744.818 122.267C744.731 122.276 744.646 122.301 744.568 122.343C744.491 122.384 744.422 122.44 744.367 122.508C744.311 122.576 744.269 122.654 744.244 122.738C744.137 122.907 737.415 144.694 710.721 151.626C692.749 156.25 683.728 167.961 674.976 179.291C668.92 187.151 663.198 194.565 654.91 198.725C645.063 203.429 636.657 210.682 630.561 219.73V219.73Z" fill="#1B76B6"/>
<path d="M712.05 151.522C711.963 151.604 711.897 151.708 711.86 151.822C711.861 151.908 711.879 151.994 711.914 152.073C711.948 152.153 711.999 152.224 712.062 152.284C712.125 152.343 712.199 152.389 712.28 152.42C712.361 152.45 712.448 152.463 712.534 152.459C734.879 151.604 743.56 160.78 743.649 160.889C743.706 160.953 743.777 161.005 743.855 161.042C743.933 161.078 744.018 161.099 744.104 161.102C744.191 161.105 744.277 161.091 744.357 161.06C744.438 161.029 744.512 160.983 744.574 160.923C744.705 160.807 744.785 160.645 744.797 160.47C744.809 160.296 744.752 160.124 744.638 159.991C744.259 159.593 735.494 150.259 712.497 151.148C712.398 151.17 712.306 151.216 712.229 151.281C712.151 151.346 712.09 151.428 712.05 151.522V151.522Z" fill="#1B76B6"/>
<path d="M678.515 174.988C678.466 175.065 678.433 175.15 678.417 175.239C678.401 175.328 678.403 175.419 678.423 175.508C678.463 175.678 678.568 175.825 678.715 175.918C678.862 176.012 679.041 176.044 679.211 176.007C694.281 172.694 710.046 175.012 723.53 182.524C723.603 182.574 723.686 182.608 723.773 182.625C723.859 182.641 723.949 182.64 724.035 182.621C724.121 182.601 724.203 182.564 724.274 182.512C724.345 182.46 724.405 182.394 724.45 182.318V182.318C724.496 182.245 724.527 182.163 724.541 182.078C724.555 181.992 724.552 181.905 724.532 181.821C724.511 181.737 724.474 181.658 724.422 181.588C724.371 181.519 724.306 181.461 724.231 181.417C710.439 173.699 694.298 171.303 678.865 174.684C678.72 174.746 678.597 174.853 678.515 174.988V174.988Z" fill="#1B76B6"/>
<path d="M702.678 144.851C702.629 144.927 702.595 145.012 702.58 145.101C702.564 145.19 702.566 145.282 702.585 145.37C702.585 145.37 703.809 150.955 696.265 157.925C696.2 157.984 696.147 158.055 696.11 158.134C696.072 158.213 696.05 158.299 696.046 158.387C696.042 158.475 696.055 158.563 696.085 158.645C696.115 158.728 696.161 158.804 696.22 158.869C696.278 158.933 696.348 158.985 696.426 159.021C696.504 159.058 696.589 159.078 696.675 159.082C696.762 159.085 696.848 159.071 696.929 159.04C697.009 159.009 697.083 158.962 697.145 158.903C705.34 151.32 703.921 145.296 703.866 145.051C703.849 144.966 703.814 144.884 703.765 144.812C703.716 144.74 703.652 144.679 703.578 144.633C703.505 144.586 703.422 144.555 703.336 144.541C703.25 144.527 703.162 144.531 703.077 144.552C702.993 144.57 702.914 144.606 702.845 144.658C702.776 144.709 702.719 144.775 702.678 144.851V144.851Z" fill="#1B76B6"/>
<path d="M668.02 173.703C667.962 173.792 667.928 173.894 667.921 174C667.913 174.106 667.933 174.212 667.979 174.308C668.965 176.904 669.313 179.697 668.995 182.455C668.677 185.212 667.701 187.852 666.15 190.153C666.093 190.22 666.05 190.298 666.026 190.382C666.001 190.467 665.994 190.555 666.006 190.642C666.018 190.729 666.049 190.813 666.095 190.887C666.142 190.962 666.204 191.026 666.277 191.075C666.347 191.127 666.428 191.164 666.513 191.185C666.598 191.206 666.687 191.21 666.773 191.196C666.86 191.183 666.943 191.152 667.018 191.106C667.093 191.061 667.158 191.001 667.21 190.93C668.91 188.449 669.978 185.59 670.322 182.601C670.665 179.613 670.273 176.585 669.18 173.781C669.147 173.701 669.098 173.629 669.036 173.568C668.974 173.508 668.9 173.46 668.82 173.429C668.739 173.397 668.653 173.382 668.566 173.385C668.48 173.387 668.394 173.407 668.316 173.444C668.196 173.503 668.094 173.592 668.02 173.703V173.703Z" fill="#1B76B6"/>
</g>
</svg>
