<svg width="225" height="20" viewBox="0 0 225 20" fill="none" xmlns="http://www.w3.org/2000/svg">
    <g clip-path="url(#clip0)">
        <path d="M23.6819 0H9.85554C4.41248 0 0 4.47715 0 10C0 15.5228 4.41248 20 9.85554 20H23.6819C29.125 20 33.5374 15.5228 33.5374 10C33.5374 4.47715 29.125 0 23.6819 0Z" fill="#2F4858"/>
        <path d="M42.3481 18.2199H35.4294V1.97546H47.0503V4.96654H38.7237V7.56698H42.3481C44.2216 7.56698 45.6882 8.06177 46.7479 9.05136C47.284 9.53258 47.7097 10.1273 47.9947 10.7935C48.2798 11.4598 48.4174 12.1813 48.3978 12.9074C48.4154 13.6323 48.277 14.3525 47.992 15.0175C47.707 15.6826 47.2824 16.2765 46.7479 16.7578C45.6846 17.7363 44.218 18.2236 42.3481 18.2199ZM38.7347 10.3516V15.2735H42.1006C42.8822 15.3217 43.6571 15.1015 44.3005 14.6485C44.5653 14.4317 44.7757 14.1543 44.9143 13.839C45.053 13.5238 45.1159 13.1796 45.0979 12.8348C45.1159 12.4887 45.0542 12.1432 44.9177 11.8255C44.7812 11.5078 44.5736 11.2267 44.3115 11.0045C43.6744 10.5358 42.8972 10.3051 42.1116 10.3516H38.7347Z" fill="#2F4858"/>
        <path d="M52.748 18.5435C51.9139 18.6014 51.079 18.442 50.3226 18.0804V15.1339C50.8922 15.4419 51.531 15.5938 52.176 15.5748C52.7454 15.6045 53.3083 15.4416 53.7765 15.1116C54.3046 14.6094 54.7241 14.0013 55.0084 13.3259L48.9477 1.97546H52.5885L56.6473 9.96095L60.1892 1.97546H63.6925L57.7803 14.6931C56.5887 17.2601 54.9113 18.5435 52.748 18.5435Z" fill="#2F4858"/>
        <path d="M77.9039 18.2199H74.637V11.8862C73.4705 12.2703 72.25 12.4587 71.0237 12.4442C69.1153 12.4442 67.6524 11.9922 66.6239 11.0993C65.5955 10.2065 65.0895 8.8672 65.0895 7.15403V1.97546H68.3893V6.61832C68.3514 7.00545 68.3983 7.3963 68.5267 7.7629C68.655 8.12949 68.8617 8.46276 69.1318 8.73886C69.8094 9.22221 70.6326 9.44929 71.4582 9.3806C72.5565 9.39896 73.6443 9.16027 74.637 8.68305V1.98662H77.9039V18.2199Z" fill="#2F4858"/>
        <path d="M93.4571 18.2199H81.4512V1.97546H93.2097V4.96653H84.7455V8.1027H91.5597V11.0491H84.7455V15.2288H93.4571V18.2199Z" fill="#2F4858"/>
        <path d="M99.3859 18.2199H96.086V1.97546H99.3859V8.05805H106.613V1.97546H109.912V18.2199H106.613V11.0938H99.3859V18.2199Z" fill="#2F4858"/>
        <path d="M116.193 18.2199H113.443V1.97546H116.743V12.5781L124.498 1.97546H127.336V18.2199H124.036V7.56698L116.193 18.2199Z" fill="#2F4858"/>
        <path d="M142.867 18.2199H130.855V1.97546H142.614V4.96653H134.15V8.1027H140.969V11.0491H134.15V15.2288H142.867V18.2199Z" fill="#2F4858"/>
        <path d="M155.56 18.2199H152.26V1.9755H159.262C160.744 1.89 162.204 2.38087 163.342 3.34826C163.837 3.78511 164.228 4.32848 164.489 4.93866C164.75 5.54884 164.873 6.21042 164.849 6.87505C164.874 7.54307 164.751 8.20825 164.491 8.82219C164.23 9.43612 163.838 9.98339 163.342 10.4242C162.206 11.3868 160.751 11.8755 159.273 11.7913H155.566L155.56 18.2199ZM155.56 4.8996V8.92862H159.036C159.694 8.96731 160.346 8.78277 160.889 8.40407C161.11 8.22692 161.286 7.99867 161.402 7.73845C161.517 7.47823 161.57 7.19364 161.555 6.90853C161.57 6.62262 161.517 6.33722 161.402 6.07611C161.286 5.815 161.11 5.58573 160.889 5.40742C160.345 5.03068 159.694 4.84812 159.036 4.88844L155.56 4.8996Z" fill="#2F4858"/>
        <path d="M169.629 18.5435C168.791 18.6033 167.952 18.4438 167.192 18.0804V15.1339C167.762 15.4419 168.401 15.5938 169.046 15.5748C169.615 15.6045 170.178 15.4416 170.646 15.1116C171.174 14.6094 171.594 14.0013 171.878 13.3259L165.828 1.97546H169.469L173.517 9.96096L177.059 1.97546H180.562L174.661 14.6931C173.469 17.2601 171.792 18.5435 169.629 18.5435Z" fill="#2F4858"/>
        <path d="M23.6819 4.97773C24.6608 4.97773 25.6178 5.27228 26.4318 5.82414C27.2458 6.376 27.8802 7.16038 28.2549 8.07809C28.6295 8.9958 28.7275 10.0056 28.5365 10.9799C28.3455 11.9541 27.8741 12.849 27.1819 13.5514C26.4896 14.2538 25.6077 14.7321 24.6475 14.9259C23.6874 15.1197 22.6921 15.0202 21.7877 14.6401C20.8832 14.2599 20.1102 13.6162 19.5663 12.7903C19.0224 11.9644 18.7321 10.9934 18.7321 10.0001C18.7321 8.66805 19.2536 7.3906 20.1819 6.44873C21.1101 5.50687 22.3691 4.97773 23.6819 4.97773ZM23.6819 1.62952C22.0503 1.62952 20.4553 2.12044 19.0986 3.04021C17.742 3.95997 16.6846 5.26727 16.0602 6.79679C15.4358 8.3263 15.2725 10.0093 15.5908 11.6331C15.9091 13.2568 16.6948 14.7483 17.8485 15.9189C19.0022 17.0896 20.4722 17.8868 22.0724 18.2098C23.6727 18.5327 25.3314 18.367 26.8389 17.7334C28.3463 17.0999 29.6347 16.027 30.5412 14.6505C31.4477 13.2739 31.9315 11.6556 31.9315 10.0001C31.9315 7.78005 31.0623 5.65097 29.5152 4.08119C27.9681 2.51141 25.8698 1.62952 23.6819 1.62952Z" fill="#31B8A0"/>
        <path d="M149.274 15.2344H146.332V18.2199H149.274V15.2344Z" fill="#2F4858"/>
        <path d="M189.461 3.64403C189.471 3.78182 189.453 3.92031 189.406 4.05023C189.36 4.18014 189.286 4.2985 189.191 4.39737C188.967 4.58643 188.694 4.70648 188.405 4.74336V4.78242C188.748 4.80696 189.075 4.93963 189.34 5.16188C189.442 5.26847 189.521 5.39546 189.572 5.53476C189.623 5.67406 189.645 5.82264 189.637 5.97103C189.649 6.18608 189.609 6.4009 189.518 6.59587C189.428 6.79083 189.291 6.95972 189.12 7.08711C188.672 7.37367 188.146 7.50851 187.618 7.47215H185.418V2.3717H187.618C188.847 2.3717 189.461 2.79581 189.461 3.64403ZM188.718 3.71657C188.725 3.61116 188.703 3.50591 188.653 3.41305C188.603 3.32019 188.529 3.24355 188.438 3.19202C188.169 3.07354 187.878 3.02005 187.585 3.03577H186.155V4.46434H187.442C187.782 4.48954 188.122 4.42815 188.432 4.28577C188.527 4.22667 188.604 4.1423 188.654 4.0419C188.704 3.9415 188.727 3.82894 188.718 3.71657ZM188.861 5.92081C188.869 5.80136 188.845 5.68196 188.79 5.57566C188.736 5.46937 188.654 5.38028 188.553 5.31813C188.236 5.17377 187.888 5.11054 187.541 5.13398H186.166V6.80809H187.541C188.421 6.80251 188.861 6.50675 188.861 5.92081Z" fill="#667077"/>
        <path d="M193.822 2.3717H194.652L192.491 4.82148L194.828 7.44983H193.943L191.661 4.87728V7.44983H190.907V2.3717H191.661V4.83822L193.822 2.3717Z" fill="#667077"/>
        <path d="M199.674 7.44972H198.909V3.03008H197.408C197.355 3.90987 197.239 4.78459 197.061 5.64727C196.978 6.15355 196.79 6.63641 196.511 7.06468C196.408 7.20405 196.275 7.31701 196.121 7.39453C195.967 7.47205 195.798 7.51198 195.626 7.51111C195.492 7.51721 195.357 7.49829 195.23 7.4553V6.89727C195.305 6.91892 195.383 6.92834 195.461 6.92517C195.807 6.92517 196.088 6.55129 196.297 5.8091C196.556 4.68778 196.713 3.54451 196.764 2.39392H199.69L199.674 7.44972Z" fill="#667077"/>
        <path d="M207.89 4.90516C207.943 5.59848 207.747 6.28778 207.34 6.84712C206.93 7.27712 206.369 7.52583 205.779 7.5394C205.19 7.55298 204.618 7.33034 204.189 6.91967C203.778 6.42896 203.552 5.80599 203.551 5.16185H202.226V7.4498H201.467V2.37168H202.226V4.49779H203.546C203.566 3.88762 203.802 3.30533 204.211 2.85717C204.415 2.66519 204.655 2.51684 204.917 2.42097C205.179 2.3251 205.457 2.28366 205.734 2.29913C206.036 2.2804 206.338 2.33259 206.617 2.45165C206.895 2.5707 207.143 2.7534 207.34 2.98551C207.743 3.53844 207.938 4.21922 207.89 4.90516ZM204.299 4.90516C204.266 5.42257 204.382 5.93857 204.634 6.38953C204.754 6.56063 204.915 6.69737 205.102 6.78639C205.289 6.8754 205.495 6.91363 205.701 6.89734C205.905 6.91227 206.11 6.87455 206.295 6.7877C206.481 6.70085 206.642 6.56771 206.763 6.40069C207.021 5.94771 207.139 5.42699 207.104 4.90516C207.144 4.3935 207.035 3.88108 206.79 3.43194C206.659 3.2745 206.496 3.14798 206.312 3.06119C206.127 2.9744 205.927 2.92944 205.723 2.92944C205.52 2.92944 205.32 2.9744 205.135 3.06119C204.951 3.14798 204.788 3.2745 204.656 3.43194C204.404 3.87871 204.287 4.39126 204.321 4.90516H204.299Z" fill="#667077"/>
        <path d="M210.09 2.3717V4.22438C210.09 4.8159 210.426 5.11166 211.091 5.11166C211.362 5.11171 211.631 5.0684 211.889 4.98331C212.189 4.86797 212.477 4.72017 212.747 4.54246V2.3717H213.5V7.44983H212.747V5.15072C212.473 5.34896 212.173 5.50679 211.856 5.61947C211.557 5.71514 211.245 5.76222 210.932 5.75898C210.505 5.7842 210.085 5.64015 209.76 5.3572C209.617 5.21967 209.505 5.05207 209.431 4.86607C209.358 4.68008 209.326 4.48014 209.337 4.28019V2.3717H210.09Z" fill="#667077"/>
        <path d="M218.373 7.44984L218.224 6.72439H218.186C217.991 6.99744 217.734 7.21936 217.438 7.37171C217.143 7.49247 216.826 7.54949 216.508 7.53912C216.085 7.56596 215.667 7.42606 215.342 7.1485C215.197 7.00475 215.084 6.83032 215.011 6.6375C214.939 6.44468 214.91 6.23815 214.924 6.03243C214.924 5.00564 215.727 4.46993 217.344 4.41971L218.197 4.3918V4.09046C218.221 3.77513 218.131 3.46166 217.944 3.20877C217.836 3.10569 217.707 3.02703 217.567 2.97797C217.427 2.92892 217.278 2.91058 217.13 2.92417C216.636 2.94356 216.153 3.07514 215.716 3.30921L215.485 2.75118C215.74 2.61045 216.012 2.50355 216.294 2.4331C216.583 2.35545 216.88 2.31606 217.179 2.31591C217.655 2.27803 218.128 2.42127 218.505 2.7177C218.662 2.89077 218.781 3.09553 218.855 3.31861C218.929 3.54169 218.956 3.77807 218.934 4.01234V7.47774L218.373 7.44984ZM216.662 6.8918C217.066 6.91191 217.461 6.76953 217.762 6.4956C217.903 6.34864 218.011 6.17329 218.08 5.98099C218.15 5.78868 218.178 5.58374 218.164 5.37953V4.94984L217.41 4.98332C216.959 4.96826 216.512 5.066 216.107 5.26792C215.975 5.34925 215.868 5.46562 215.798 5.60436C215.727 5.74309 215.695 5.89888 215.705 6.05475C215.697 6.17198 215.715 6.28956 215.758 6.39874C215.801 6.50791 215.868 6.60588 215.953 6.68533C216.161 6.8526 216.425 6.93248 216.69 6.90854L216.662 6.8918Z" fill="#667077"/>
        <path d="M221.398 2.37169V5.58039L221.365 6.42303V6.6853L224.071 2.36053H225.017V7.43865H224.313V4.34155V3.73329V3.13061L221.64 7.44981H220.694V2.37169H221.398ZM222.822 1.67414C222.386 1.71267 221.951 1.59628 221.59 1.3449C221.451 1.20565 221.341 1.0396 221.267 0.856547C221.192 0.673495 221.154 0.47714 221.156 0.279053H221.871C221.87 0.525423 221.958 0.763578 222.118 0.948696C222.331 1.09624 222.588 1.16339 222.844 1.13843C223.092 1.16005 223.34 1.08637 223.537 0.931954C223.717 0.762161 223.826 0.528172 223.84 0.279053H224.56C224.558 0.480813 224.516 0.680109 224.437 0.865117C224.357 1.05012 224.242 1.21707 224.098 1.35606C223.723 1.61065 223.271 1.72324 222.822 1.67414Z" fill="#667077"/>
        <path d="M187.998 17.8572L188.141 17.4275L188.333 16.8695L189.692 13.5212H190.654V18.5938H189.983V14.4141L189.89 14.682L189.626 15.3907L188.333 18.6105H187.701L186.408 15.3851C186.249 14.9721 186.139 14.6485 186.073 14.4141V18.6105H185.402V13.538H186.326L187.635 16.7411C187.775 17.1065 187.896 17.479 187.998 17.8572Z" fill="#667077"/>
        <path d="M196.775 16.0658C196.818 16.7669 196.598 17.4584 196.159 18.0022C195.943 18.2385 195.678 18.4235 195.384 18.5441C195.089 18.6646 194.772 18.7178 194.454 18.6997C194.037 18.7073 193.626 18.5972 193.266 18.3817C192.924 18.1593 192.654 17.8389 192.491 17.4609C192.291 17.0246 192.193 16.547 192.205 16.0658C192.161 15.3654 192.379 14.674 192.815 14.1294C193.033 13.897 193.298 13.7149 193.591 13.5955C193.884 13.4761 194.199 13.4222 194.515 13.4375C194.824 13.4276 195.132 13.4858 195.417 13.6081C195.701 13.7305 195.957 13.914 196.165 14.1462C196.597 14.6864 196.815 15.3711 196.775 16.0658ZM192.964 16.0658C192.929 16.59 193.064 17.1115 193.349 17.5502C193.491 17.7104 193.665 17.8385 193.859 17.9261C194.054 18.0138 194.264 18.0591 194.476 18.0591C194.689 18.0591 194.899 18.0138 195.093 17.9261C195.288 17.8385 195.462 17.7104 195.604 17.5502C195.89 17.1119 196.025 16.5901 195.989 16.0658C196.025 15.545 195.89 15.0268 195.604 14.5926C195.467 14.4231 195.292 14.2892 195.094 14.2018C194.897 14.1145 194.681 14.0763 194.465 14.0904C194.257 14.0801 194.048 14.1196 193.857 14.2059C193.666 14.2922 193.498 14.4227 193.365 14.587C193.075 15.0218 192.934 15.5415 192.964 16.0658Z" fill="#667077"/>
        <path d="M199.245 15.6249C200.191 15.6249 200.664 15.3571 200.664 14.827C200.664 14.2968 200.284 14.0736 199.514 14.0736C199.3 14.0714 199.086 14.0939 198.876 14.1406C198.619 14.2057 198.367 14.2916 198.123 14.3973L197.853 13.7723C198.387 13.5345 198.964 13.4146 199.547 13.4207C200.026 13.3941 200.501 13.521 200.906 13.7834C201.065 13.8884 201.195 14.0336 201.283 14.2048C201.37 14.3759 201.413 14.5672 201.406 14.76C201.409 15.0292 201.316 15.2903 201.144 15.4954C200.973 15.7005 200.733 15.8357 200.471 15.8761V15.9151C200.791 15.989 201.082 16.158 201.307 16.4006C201.487 16.6255 201.581 16.909 201.571 17.1986C201.584 17.4172 201.54 17.6354 201.443 17.8313C201.347 18.0271 201.201 18.1938 201.021 18.3147C200.557 18.6002 200.018 18.7364 199.476 18.7053C198.907 18.7345 198.341 18.6214 197.826 18.3761V17.6674C198.352 17.9278 198.929 18.0651 199.514 18.0691C199.862 18.0923 200.208 18.0108 200.51 17.8348C200.617 17.7637 200.704 17.6657 200.763 17.5503C200.822 17.4349 200.85 17.3061 200.845 17.1763C200.845 16.5848 200.372 16.2946 199.426 16.2946H198.728V15.6249H199.245Z" fill="#667077"/>
        <path d="M206.004 14.1908H203.749V18.6105H202.996V13.5323H206.004V14.1908Z" fill="#667077"/>
        <path d="M207.89 13.5323V16.7411V17.5948V17.8571L210.596 13.5323H211.542V18.6105H210.833V15.5022V14.894V14.2913L208.127 18.6105H207.186V13.5323H207.89Z" fill="#667077"/>
    </g>
    <defs>
        <clipPath id="clip0">
            <path d="M0 0H225V20H0V0Z" fill="white"/>
        </clipPath>
    </defs>
</svg>
