<svg width="225" height="20" viewBox="0 0 225 20" fill="none" xmlns="http://www.w3.org/2000/svg">
<g clip-path="url(#clip0)">
<path d="M23.6241 0H9.83151C4.40172 0 0 4.47715 0 10C0 15.5228 4.40172 20 9.83151 20H23.6241C29.0539 20 33.4557 15.5228 33.4557 10C33.4557 4.47715 29.0539 0 23.6241 0Z" fill="white"/>
<path d="M42.7934 18.2199H35.8916V1.97546H47.4842V4.96653H39.1779V7.56698H42.7934C44.6624 7.56698 46.1254 8.06177 47.1825 9.05136C47.7173 9.53258 48.1419 10.1273 48.4263 10.7935C48.7107 11.4598 48.8479 12.1813 48.8284 12.9074C48.846 13.6323 48.7078 14.3525 48.4236 15.0175C48.1393 15.6826 47.7157 16.2765 47.1825 16.7578C46.1218 17.7363 44.6588 18.2236 42.7934 18.2199ZM39.1889 10.3516V15.2735H42.5465C43.3263 15.3217 44.0993 15.1015 44.7411 14.6485C45.0053 14.4317 45.2151 14.1543 45.3534 13.839C45.4917 13.5238 45.5545 13.1796 45.5366 12.8348C45.5545 12.4887 45.4929 12.1432 45.3567 11.8255C45.2206 11.5078 45.0135 11.2267 44.752 11.0045C44.1165 10.5358 43.3412 10.3051 42.5575 10.3516H39.1889Z" fill="white"/>
<path d="M53.1681 18.5435C52.336 18.6014 51.5031 18.442 50.7486 18.0804V15.1339C51.3167 15.4419 51.954 15.5938 52.5975 15.5748C53.1654 15.6045 53.7269 15.4416 54.194 15.1116C54.7208 14.6094 55.1393 14.0013 55.423 13.3259L49.377 1.97546H53.009L57.0579 9.96096L60.5911 1.97546H64.0859L58.1881 14.6931C56.9994 17.2601 55.326 18.5435 53.1681 18.5435Z" fill="white"/>
<path d="M78.2625 18.2199H75.0037V11.8862C73.84 12.2703 72.6225 12.4587 71.3991 12.4442C69.4954 12.4442 68.036 11.9922 67.0101 11.0993C65.9841 10.2065 65.4794 8.8672 65.4794 7.15403V1.97546H68.7712V6.61832C68.7334 7.00545 68.7801 7.3963 68.9082 7.7629C69.0362 8.12949 69.2424 8.46276 69.5118 8.73886C70.1878 9.22221 71.009 9.44929 71.8325 9.3806C72.9282 9.39896 74.0133 9.16027 75.0037 8.68305V1.98662H78.2625V18.2199Z" fill="white"/>
<path d="M93.7779 18.2199H81.8012V1.97546H93.531V4.96653H85.0875V8.1027H91.8851V11.0491H85.0875V15.2288H93.7779V18.2199Z" fill="white"/>
<path d="M99.6922 18.2199H96.4004V1.97546H99.6922V8.05805H106.901V1.97546H110.193V18.2199H106.901V11.0938H99.6922V18.2199Z" fill="white"/>
<path d="M116.458 18.2199H113.715V1.97546H117.007V12.5781L124.743 1.97546H127.574V18.2199H124.282V7.56698L116.458 18.2199Z" fill="white"/>
<path d="M143.067 18.2199H131.085V1.97546H142.815V4.96653H134.371V8.1027H141.174V11.0491H134.371V15.2288H143.067V18.2199Z" fill="white"/>
<path d="M155.73 18.2199H152.438V1.97544H159.422C160.901 1.88993 162.357 2.38081 163.493 3.3482C163.986 3.78505 164.377 4.32842 164.637 4.9386C164.897 5.54878 165.019 6.21036 164.996 6.87499C165.02 7.54301 164.898 8.20819 164.638 8.82213C164.378 9.43606 163.987 9.98333 163.493 10.4241C162.359 11.3868 160.908 11.8755 159.433 11.7913H155.735L155.73 18.2199ZM155.73 4.89954V8.92856H159.197C159.853 8.96725 160.504 8.78271 161.046 8.40401C161.266 8.22686 161.441 7.99861 161.557 7.73839C161.672 7.47817 161.725 7.19358 161.71 6.90847C161.725 6.62256 161.672 6.33716 161.557 6.07605C161.441 5.81494 161.266 5.58567 161.046 5.40735C160.503 5.03062 159.853 4.84806 159.197 4.88838L155.73 4.89954Z" fill="white"/>
<path d="M169.764 18.5435C168.928 18.6033 168.091 18.4438 167.333 18.0804V15.1339C167.901 15.4419 168.539 15.5938 169.182 15.5748C169.75 15.6045 170.312 15.4416 170.779 15.1116C171.305 14.6094 171.724 14.0013 172.008 13.3259L165.973 1.97546H169.605L173.642 9.96095L177.176 1.97546H180.67L174.784 14.6931C173.595 17.2601 171.922 18.5435 169.764 18.5435Z" fill="white"/>
<path d="M23.6242 4.97767C24.6007 4.97767 25.5554 5.27222 26.3674 5.82408C27.1794 6.37594 27.8123 7.16032 28.186 8.07803C28.5597 8.99574 28.6575 10.0056 28.467 10.9798C28.2765 11.954 27.8062 12.8489 27.1156 13.5513C26.4251 14.2537 25.5453 14.732 24.5875 14.9258C23.6296 15.1196 22.6368 15.0201 21.7346 14.64C20.8323 14.2599 20.0612 13.6162 19.5186 12.7902C18.976 11.9643 18.6865 10.9933 18.6865 9.99999C18.6865 8.66799 19.2067 7.39054 20.1327 6.44867C21.0587 5.50681 22.3146 4.97767 23.6242 4.97767ZM23.6242 1.62946C21.9965 1.62946 20.4054 2.12038 19.0521 3.04015C17.6988 3.95991 16.644 5.26721 16.0211 6.79673C15.3982 8.32624 15.2352 10.0093 15.5528 11.633C15.8703 13.2567 16.6541 14.7482 17.805 15.9189C18.9559 17.0895 20.4223 17.8867 22.0187 18.2097C23.615 18.5327 25.2697 18.3669 26.7734 17.7334C28.2772 17.0998 29.5625 16.0269 30.4667 14.6504C31.371 13.2739 31.8537 11.6555 31.8537 9.99999C31.8537 7.77999 30.9866 5.65091 29.4433 4.08113C27.9 2.51135 25.8068 1.62946 23.6242 1.62946Z" fill="#31B8A0"/>
<path d="M149.459 15.2344H146.523V18.2199H149.459V15.2344Z" fill="white"/>
<path d="M189.547 3.64396C189.558 3.78176 189.539 3.92025 189.493 4.05017C189.447 4.18008 189.373 4.29844 189.279 4.39731C189.055 4.58637 188.783 4.70642 188.494 4.74329V4.78236C188.836 4.8069 189.162 4.93957 189.427 5.16182C189.529 5.26841 189.607 5.3954 189.658 5.5347C189.709 5.674 189.731 5.82258 189.723 5.97097C189.735 6.18602 189.695 6.40084 189.605 6.5958C189.515 6.79077 189.378 6.95966 189.207 7.08704C188.761 7.37361 188.236 7.50845 187.709 7.47209H185.515V2.37164H187.709C188.935 2.37164 189.547 2.79575 189.547 3.64396ZM188.807 3.71651C188.814 3.6111 188.791 3.50585 188.742 3.41299C188.692 3.32013 188.618 3.24348 188.527 3.19196C188.259 3.07348 187.968 3.01999 187.676 3.03571H186.25V4.46428H187.534C187.873 4.48947 188.212 4.42809 188.521 4.28571C188.616 4.22661 188.692 4.14224 188.743 4.04184C188.793 3.94143 188.815 3.82888 188.807 3.71651ZM188.949 5.92075C188.957 5.8013 188.933 5.68189 188.879 5.5756C188.825 5.46931 188.743 5.38022 188.642 5.31807C188.325 5.1737 187.979 5.11048 187.633 5.13392H186.261V6.80803H187.633C188.51 6.80245 188.949 6.50669 188.949 5.92075Z" fill="#E3E7E9"/>
<path d="M193.898 2.37164H194.726L192.57 4.82142L194.902 7.44977H194.019L191.742 4.87722V7.44977H190.99V2.37164H191.742V4.83816L193.898 2.37164Z" fill="#E3E7E9"/>
<path d="M199.735 7.44978H198.973V3.03014H197.475C197.423 3.90993 197.307 4.78465 197.129 5.64733C197.046 6.15361 196.859 6.63647 196.581 7.06474C196.478 7.20411 196.345 7.31707 196.191 7.39459C196.038 7.47211 195.869 7.51204 195.698 7.51117C195.564 7.51727 195.43 7.49835 195.302 7.45536V6.89733C195.377 6.91898 195.455 6.9284 195.533 6.92523C195.879 6.92523 196.158 6.55135 196.367 5.80916C196.626 4.68784 196.782 3.54457 196.833 2.39398H199.752L199.735 7.44978Z" fill="#E3E7E9"/>
<path d="M207.932 4.90516C207.984 5.59848 207.79 6.28778 207.383 6.84712C206.974 7.27712 206.415 7.52583 205.826 7.53941C205.238 7.55298 204.668 7.33034 204.24 6.91967C203.829 6.42896 203.604 5.80599 203.603 5.16185H202.281V7.4498H201.524V2.37168H202.281V4.49779H203.598C203.618 3.88762 203.854 3.30533 204.262 2.85717C204.465 2.66519 204.705 2.51684 204.966 2.42097C205.227 2.3251 205.504 2.28366 205.781 2.29913C206.082 2.2804 206.383 2.33259 206.661 2.45165C206.939 2.5707 207.186 2.7534 207.383 2.98551C207.785 3.53844 207.98 4.21922 207.932 4.90516ZM204.349 4.90516C204.316 5.42257 204.433 5.93857 204.684 6.38953C204.803 6.56063 204.964 6.69737 205.15 6.78639C205.337 6.8754 205.543 6.91363 205.748 6.89735C205.952 6.91227 206.156 6.87455 206.341 6.7877C206.526 6.70085 206.686 6.56771 206.807 6.40069C207.064 5.94772 207.183 5.42699 207.147 4.90516C207.188 4.3935 207.079 3.88108 206.835 3.43194C206.704 3.2745 206.541 3.14798 206.357 3.06119C206.173 2.9744 205.973 2.92944 205.77 2.92944C205.568 2.92944 205.368 2.9744 205.184 3.06119C205 3.14798 204.837 3.2745 204.706 3.43194C204.454 3.87871 204.338 4.39126 204.371 4.90516H204.349Z" fill="#E3E7E9"/>
<path d="M210.127 2.37164V4.22432C210.127 4.81584 210.461 5.1116 211.125 5.1116C211.395 5.11165 211.664 5.06834 211.921 4.98325C212.221 4.86791 212.508 4.72011 212.776 4.5424V2.37164H213.528V7.44977H212.776V5.15066C212.503 5.3489 212.204 5.50672 211.888 5.61941C211.59 5.71508 211.279 5.76216 210.966 5.75892C210.54 5.78414 210.121 5.64008 209.797 5.35713C209.654 5.2196 209.542 5.05201 209.469 4.86601C209.396 4.68001 209.364 4.48008 209.375 4.28013V2.37164H210.127Z" fill="#E3E7E9"/>
<path d="M218.389 7.44978L218.241 6.72433H218.202C218.008 6.99738 217.752 7.2193 217.456 7.37165C217.162 7.49241 216.846 7.54943 216.529 7.53906C216.106 7.5659 215.69 7.426 215.366 7.14844C215.221 7.00469 215.108 6.83026 215.036 6.63744C214.964 6.44462 214.934 6.23809 214.949 6.03237C214.949 5.00558 215.75 4.46987 217.363 4.41965L218.213 4.39174V4.0904C218.238 3.77507 218.148 3.4616 217.961 3.20871C217.853 3.10563 217.725 3.02697 217.585 2.97791C217.445 2.92886 217.296 2.91052 217.149 2.92411C216.657 2.94349 216.175 3.07508 215.739 3.30915L215.509 2.75112C215.763 2.61039 216.034 2.50349 216.315 2.43304C216.603 2.35539 216.9 2.316 217.198 2.31585C217.673 2.27797 218.144 2.42121 218.521 2.71764C218.677 2.89071 218.797 3.09547 218.87 3.31855C218.944 3.54163 218.971 3.77801 218.949 4.01228V7.47768L218.389 7.44978ZM216.683 6.89174C217.086 6.91185 217.48 6.76947 217.78 6.49554C217.92 6.34858 218.028 6.17323 218.097 5.98093C218.166 5.78862 218.195 5.58368 218.18 5.37947V4.94978L217.429 4.98326C216.979 4.9682 216.533 5.06594 216.129 5.26786C215.997 5.34919 215.891 5.46556 215.82 5.6043C215.75 5.74303 215.718 5.89882 215.728 6.05469C215.72 6.17192 215.738 6.2895 215.781 6.39867C215.823 6.50785 215.89 6.60582 215.975 6.68527C216.183 6.85254 216.446 6.93242 216.71 6.90848L216.683 6.89174Z" fill="#E3E7E9"/>
<path d="M221.406 2.37163V5.58033L221.374 6.42296V6.68524L224.073 2.36046H225.016V7.43859H224.314V4.34149V3.73323V3.13055L221.648 7.44975H220.704V2.37163H221.406ZM222.827 1.67408C222.393 1.71261 221.958 1.59622 221.598 1.34484C221.46 1.20558 221.35 1.03954 221.276 0.856486C221.201 0.673434 221.164 0.477079 221.165 0.278992H221.878C221.878 0.525362 221.965 0.763517 222.125 0.948635C222.337 1.09618 222.594 1.16333 222.849 1.13837C223.097 1.15999 223.344 1.08631 223.541 0.931893C223.72 0.7621 223.829 0.528111 223.842 0.278992H224.561C224.559 0.480752 224.517 0.680048 224.438 0.865056C224.359 1.05006 224.244 1.21701 224.1 1.356C223.726 1.61058 223.275 1.72317 222.827 1.67408Z" fill="#E3E7E9"/>
<path d="M188.088 17.8571L188.231 17.4274L188.423 16.8694L189.778 13.5212H190.738V18.5937H190.069V14.414L189.975 14.6819L189.712 15.3906L188.423 18.6105H187.792L186.502 15.385C186.343 14.9721 186.234 14.6484 186.168 14.414V18.6105H185.498V13.5379H186.42L187.726 16.741C187.866 17.1064 187.986 17.4789 188.088 17.8571Z" fill="#E3E7E9"/>
<path d="M196.844 16.0659C196.886 16.767 196.667 17.4585 196.23 18.0023C196.014 18.2385 195.75 18.4235 195.456 18.5441C195.162 18.6647 194.845 18.7178 194.529 18.6998C194.113 18.7074 193.702 18.5973 193.344 18.3817C193.002 18.1593 192.733 17.8389 192.57 17.461C192.37 17.0246 192.273 16.5471 192.285 16.0659C192.241 15.3655 192.459 14.6741 192.894 14.1295C193.111 13.8971 193.375 13.715 193.668 13.5956C193.96 13.4762 194.274 13.4223 194.589 13.4375C194.898 13.4276 195.205 13.4858 195.489 13.6082C195.773 13.7305 196.028 13.9141 196.235 14.1462C196.666 14.6865 196.884 15.3711 196.844 16.0659ZM193.042 16.0659C193.007 16.5901 193.142 17.1116 193.426 17.5503C193.568 17.7105 193.742 17.8385 193.935 17.9262C194.129 18.0139 194.339 18.0592 194.551 18.0592C194.763 18.0592 194.973 18.0139 195.166 17.9262C195.36 17.8385 195.534 17.7105 195.676 17.5503C195.961 17.1119 196.096 16.5902 196.06 16.0659C196.096 15.5451 195.961 15.0269 195.676 14.5927C195.539 14.4232 195.365 14.2892 195.167 14.2019C194.97 14.1145 194.755 14.0763 194.54 14.0904C194.332 14.0801 194.124 14.1197 193.933 14.206C193.743 14.2922 193.575 14.4228 193.443 14.5871C193.153 15.0218 193.012 15.5416 193.042 16.0659Z" fill="#E3E7E9"/>
<path d="M199.308 15.625C200.251 15.625 200.723 15.3572 200.723 14.827C200.723 14.2969 200.344 14.0737 199.576 14.0737C199.362 14.0715 199.149 14.094 198.94 14.1406C198.683 14.2058 198.432 14.2916 198.188 14.3973L197.919 13.7723C198.452 13.5346 199.028 13.4147 199.609 13.4208C200.087 13.3942 200.561 13.521 200.964 13.7835C201.123 13.8885 201.253 14.0337 201.341 14.2048C201.428 14.376 201.47 14.5673 201.464 14.7601C201.467 15.0292 201.374 15.2904 201.202 15.4955C201.031 15.7006 200.793 15.8358 200.531 15.8761V15.9152C200.85 15.9891 201.141 16.1581 201.365 16.4007C201.545 16.6256 201.638 16.9091 201.628 17.1987C201.641 17.4173 201.597 17.6354 201.501 17.8313C201.404 18.0272 201.259 18.1939 201.08 18.3147C200.616 18.6003 200.079 18.7365 199.538 18.7054C198.971 18.7345 198.406 18.6215 197.892 18.3761V17.6674C198.417 17.9279 198.992 18.0652 199.576 18.0692C199.923 18.0924 200.268 18.0108 200.569 17.8348C200.676 17.7637 200.763 17.6657 200.822 17.5504C200.88 17.435 200.909 17.3061 200.904 17.1764C200.904 16.5848 200.432 16.2947 199.489 16.2947H198.792V15.625H199.308Z" fill="#E3E7E9"/>
<path d="M206.05 14.1908H203.801V18.6105H203.049V13.5323H206.05V14.1908Z" fill="#E3E7E9"/>
<path d="M207.932 13.5323V16.7411V17.5948V17.8571L210.631 13.5323H211.575V18.6105H210.867V15.5022V14.894V14.2913L208.168 18.6105H207.23V13.5323H207.932Z" fill="#E3E7E9"/>
</g>
<defs>
<clipPath id="clip0">
<path d="M0 0H225V20H0V0Z" fill="white"/>
</clipPath>
</defs>
</svg>
